M48
;Layer_Color=9474304
;FILE_FORMAT=4:4
METRIC,LZ
;TYPE=PLATED
T1F00S00C0.2000
T2F00S00C0.3000
T3F00S00C0.6000
T5F00S00C0.6500
T6F00S00C1.0000
%
T01
X0025078Y0005375
X0024831Y0005994
X0024433Y0006513
X00284Y00057
X00316Y00077
X0021783Y0009674
X0021791Y0010418
X0021799Y0011177
X0021815Y0011978
X0021807Y0012738
X00191Y00131
X0018Y00131
X00148141Y00131141
X000929Y001225
X000935Y001061
X00113Y00086
Y00072
X00082Y00077
X00064Y00092
X00066Y00128
X0003512Y0011036
X0003006Y0011411
X000619Y00039
X000911Y000391
X001348Y000392
X00177Y00039
X0019091Y00035048
X00201Y00041
X002025Y000295
X0021515Y0003489
X00210298Y0005195
X0021437Y00056755
X0020385Y00059048
X001636Y000586
X001625Y001435
X001762Y001435
X001694Y001511
X001836Y00151
X0020569Y0014358
X00214557Y00164026
X00222167Y00163816
X0023086Y0016352
X00238877Y00163606
X00232502Y0019307
X002185Y00207
X00201Y002145
X001931Y0022237
X002076Y002344
X00207Y00254
X00226Y002419
X00158Y00254
X00153Y00225
X00151Y00218
X00158
X00156762Y00209179
X001568Y001811
X00164Y00181
X001329Y001579
X001075Y00158
X001Y00166
Y00138
X000925Y00144
X00082029Y00181028
X00065Y00175
X0004Y00169
X00031Y0019
X0003Y00217
X00043Y00251
X00079Y00232
X00076Y0021
X00098Y00209
X0024178Y0020896
Y0021445
Y0021994
Y0022543
X00241805Y0023296
Y0023845
Y0024394
Y0024943
X0025245Y002332
X0027377Y0023999
X002625Y002087
X00262456Y001986
X00272152Y001973
X00271Y001887
Y001777
X0027671Y001709
X0025245Y001692
X00243177Y00176786
T02
X0016Y00083
Y00094
X00171
Y00105
X0016
X00182
Y00094
Y00083
X00171
X001775Y001905
X001885
Y002015
X001775
T03
X000899Y002333
Y00246
X001026
Y002333
X001153
Y00246
X00128
Y002333
X001407
Y00246
T05
X002632Y001723
Y002301
T06
X00234Y00053
Y00078
X00234Y00103
M30
