G04*
G04 #@! TF.GenerationSoftware,Altium Limited,Altium Designer,22.3.1 (43)*
G04*
G04 Layer_Color=16711935*
%FSLAX44Y44*%
%MOMM*%
G71*
G04*
G04 #@! TF.SameCoordinates,D810A163-4558-4574-BFD7-F7CA9EDE3B54*
G04*
G04*
G04 #@! TF.FilePolarity,Negative*
G04*
G01*
G75*
%ADD52C,2.1524*%
%ADD53C,0.1524*%
%ADD54O,2.2524X1.1524*%
%ADD55O,1.9524X1.1524*%
G04:AMPARAMS|DCode=56|XSize=2.1524mm|YSize=2.1524mm|CornerRadius=0.3262mm|HoleSize=0mm|Usage=FLASHONLY|Rotation=270.000|XOffset=0mm|YOffset=0mm|HoleType=Round|Shape=RoundedRectangle|*
%AMROUNDEDRECTD56*
21,1,2.1524,1.5000,0,0,270.0*
21,1,1.5000,2.1524,0,0,270.0*
1,1,0.6524,-0.7500,-0.7500*
1,1,0.6524,-0.7500,0.7500*
1,1,0.6524,0.7500,0.7500*
1,1,0.6524,0.7500,-0.7500*
%
%ADD56ROUNDEDRECTD56*%
%ADD57C,1.1524*%
G04:AMPARAMS|DCode=58|XSize=1.1524mm|YSize=1.1524mm|CornerRadius=0.2012mm|HoleSize=0mm|Usage=FLASHONLY|Rotation=270.000|XOffset=0mm|YOffset=0mm|HoleType=Round|Shape=RoundedRectangle|*
%AMROUNDEDRECTD58*
21,1,1.1524,0.7500,0,0,270.0*
21,1,0.7500,1.1524,0,0,270.0*
1,1,0.4024,-0.3750,-0.3750*
1,1,0.4024,-0.3750,0.3750*
1,1,0.4024,0.3750,0.3750*
1,1,0.4024,0.3750,-0.3750*
%
%ADD58ROUNDEDRECTD58*%
%ADD74C,1.6524*%
D52*
X234000Y78000D02*
D03*
Y53000D02*
D03*
D53*
X263200Y172300D02*
D03*
Y230100D02*
D03*
D54*
X258200Y244400D02*
D03*
Y158000D02*
D03*
D55*
X300000Y244400D02*
D03*
Y158000D02*
D03*
D56*
X234000Y103000D02*
D03*
D57*
X89900Y246000D02*
D03*
Y233300D02*
D03*
X102600Y246000D02*
D03*
Y233300D02*
D03*
X115300Y246000D02*
D03*
Y233300D02*
D03*
X128000Y246000D02*
D03*
Y233300D02*
D03*
X140700D02*
D03*
D58*
Y246000D02*
D03*
D74*
X300000Y77000D02*
D03*
Y57000D02*
D03*
Y37000D02*
D03*
Y137000D02*
D03*
Y117000D02*
D03*
Y97000D02*
D03*
M02*
