G04*
G04 #@! TF.GenerationSoftware,Altium Limited,Altium Designer,22.3.1 (43)*
G04*
G04 Layer_Color=65535*
%FSLAX44Y44*%
%MOMM*%
G71*
G04*
G04 #@! TF.SameCoordinates,D810A163-4558-4574-BFD7-F7CA9EDE3B54*
G04*
G04*
G04 #@! TF.FilePolarity,Positive*
G04*
G01*
G75*
%ADD10C,0.1540*%
%ADD11C,0.1530*%
G36*
X33000Y236000D02*
X28000Y241000D01*
X33000Y246000D01*
Y236000D01*
D02*
G37*
G36*
X127769Y222673D02*
X128000D01*
Y222615D01*
X128288D01*
Y222558D01*
X128462D01*
Y222500D01*
X128750D01*
Y222442D01*
X128981D01*
Y222385D01*
X129154D01*
Y222327D01*
X129442D01*
Y222269D01*
X129615D01*
Y222211D01*
X129904D01*
Y222154D01*
X130077D01*
Y222096D01*
X130308D01*
Y222038D01*
X130539D01*
Y221981D01*
X130711D01*
Y221923D01*
X131000D01*
Y221865D01*
X131173D01*
Y221808D01*
X131461D01*
Y221750D01*
X131635D01*
Y221692D01*
X131865D01*
Y221635D01*
X132096D01*
Y221577D01*
X132269D01*
Y221519D01*
X132558D01*
Y221462D01*
X132731D01*
Y221404D01*
X132962D01*
Y221346D01*
X133135D01*
Y221289D01*
X133308D01*
Y221231D01*
X133596D01*
Y221173D01*
X133769D01*
Y221115D01*
X134000D01*
Y221058D01*
X134173D01*
Y221000D01*
X134404D01*
Y220942D01*
X134635D01*
Y220885D01*
X134750D01*
Y220827D01*
X135038D01*
Y220769D01*
X135211D01*
Y220711D01*
X135442D01*
Y220654D01*
X135615D01*
Y220596D01*
X135788D01*
Y220539D01*
X136019D01*
Y220481D01*
X136135D01*
Y220423D01*
X136423D01*
Y220365D01*
X136538D01*
Y220308D01*
X136769D01*
Y220250D01*
X136942D01*
Y220192D01*
X137115D01*
Y220135D01*
X137346D01*
Y220077D01*
X137462D01*
Y220019D01*
X137692D01*
Y219961D01*
X137865D01*
Y219904D01*
X137981D01*
Y219846D01*
X138211D01*
Y219788D01*
X138327D01*
Y219731D01*
X138558D01*
Y219673D01*
X138673D01*
Y219615D01*
X138788D01*
Y219558D01*
X139019D01*
Y219500D01*
X139077D01*
Y219442D01*
X139308D01*
Y219385D01*
X139365D01*
Y219327D01*
X139538D01*
Y219269D01*
X139654D01*
Y219212D01*
X139769D01*
Y219154D01*
X139885D01*
Y219039D01*
X139250D01*
Y219096D01*
X138904D01*
Y219154D01*
X138385D01*
Y219212D01*
X138096D01*
Y219269D01*
X137808D01*
Y219327D01*
X137519D01*
Y219385D01*
X137346D01*
Y219442D01*
X137058D01*
Y219500D01*
X136885D01*
Y219558D01*
X136654D01*
Y219615D01*
X136423D01*
Y219673D01*
X136250D01*
Y219731D01*
X135962D01*
Y219788D01*
X135788D01*
Y219846D01*
X135500D01*
Y219904D01*
X135327D01*
Y219961D01*
X135096D01*
Y220019D01*
X134808D01*
Y220077D01*
X134692D01*
Y220135D01*
X134346D01*
Y220192D01*
X134173D01*
Y220250D01*
X133942D01*
Y220308D01*
X133712D01*
Y220365D01*
X133539D01*
Y220423D01*
X133192D01*
Y220481D01*
X133077D01*
Y220539D01*
X132731D01*
Y220596D01*
X132558D01*
Y220654D01*
X132327D01*
Y220711D01*
X132096D01*
Y220769D01*
X131923D01*
Y220827D01*
X131577D01*
Y220885D01*
X131404D01*
Y220942D01*
X131173D01*
Y221000D01*
X130942D01*
Y221058D01*
X130769D01*
Y221115D01*
X130423D01*
Y221173D01*
X130308D01*
Y221231D01*
X129962D01*
Y221289D01*
X129789D01*
Y221346D01*
X129558D01*
Y221404D01*
X129269D01*
Y221462D01*
X129154D01*
Y221519D01*
X128808D01*
Y221577D01*
X128635D01*
Y221635D01*
X128346D01*
Y221692D01*
X128173D01*
Y221750D01*
X127885D01*
Y221692D01*
X127769D01*
Y221635D01*
X127596D01*
Y221577D01*
X127481D01*
Y221519D01*
X127250D01*
Y221462D01*
X127135D01*
Y221404D01*
X126904D01*
Y221346D01*
X126731D01*
Y221289D01*
X126615D01*
Y221231D01*
X126385D01*
Y221173D01*
X126269D01*
Y221115D01*
X126039D01*
Y221058D01*
X125865D01*
Y221000D01*
X125692D01*
Y220942D01*
X125519D01*
Y220885D01*
X125404D01*
Y220827D01*
X125115D01*
Y220769D01*
X125000D01*
Y220711D01*
X124769D01*
Y220654D01*
X124654D01*
Y220596D01*
X124481D01*
Y220539D01*
X124250D01*
Y220481D01*
X124135D01*
Y220423D01*
X123904D01*
Y220365D01*
X123788D01*
Y220308D01*
X123615D01*
Y220250D01*
X123385D01*
Y220192D01*
X123269D01*
Y220135D01*
X123039D01*
Y220077D01*
X122865D01*
Y220019D01*
X122692D01*
Y219961D01*
X122519D01*
Y219904D01*
X122346D01*
Y219846D01*
X122115D01*
Y219788D01*
X122000D01*
Y219731D01*
X121769D01*
Y219673D01*
X121654D01*
Y219615D01*
X121481D01*
Y219558D01*
X121250D01*
Y219500D01*
X121135D01*
Y219442D01*
X120904D01*
Y219385D01*
X120788D01*
Y219327D01*
X120558D01*
Y219269D01*
X120385D01*
Y219212D01*
X120269D01*
Y219154D01*
X119981D01*
Y219096D01*
X119923D01*
Y219039D01*
X119635D01*
Y218981D01*
X119519D01*
Y218923D01*
X119346D01*
Y218865D01*
X119115D01*
Y218808D01*
X119000D01*
Y218750D01*
X118769D01*
Y218692D01*
X118654D01*
Y218635D01*
X118423D01*
Y218577D01*
X118250D01*
Y218519D01*
X118135D01*
Y218461D01*
X117904D01*
Y218404D01*
X117788D01*
Y218346D01*
X117558D01*
Y218288D01*
X117385D01*
Y218231D01*
X117212D01*
Y218173D01*
X117038D01*
Y218115D01*
X116865D01*
Y218058D01*
X116635D01*
Y218000D01*
X116519D01*
Y217942D01*
X116288D01*
Y217885D01*
X116115D01*
Y217827D01*
X116000D01*
Y217769D01*
X115885D01*
Y217654D01*
X115827D01*
Y217596D01*
X115769D01*
Y217481D01*
X115712D01*
Y217423D01*
X115654D01*
Y217308D01*
X115596D01*
Y217192D01*
X115539D01*
Y217135D01*
X115481D01*
Y217019D01*
X115423D01*
Y216961D01*
X115365D01*
Y216846D01*
X115308D01*
Y216789D01*
X115250D01*
Y216673D01*
X115192D01*
Y216558D01*
X115135D01*
Y216500D01*
X115077D01*
Y216385D01*
X115019D01*
Y216327D01*
X114962D01*
Y216212D01*
X114904D01*
Y216154D01*
X114846D01*
Y216096D01*
X114789D01*
Y215923D01*
X114731D01*
Y215865D01*
X114673D01*
Y215750D01*
X114615D01*
Y215692D01*
X114558D01*
Y215635D01*
X114500D01*
Y215519D01*
X114442D01*
Y215404D01*
X114385D01*
Y215289D01*
X114327D01*
Y215231D01*
X114269D01*
Y215173D01*
X114212D01*
Y215058D01*
X114154D01*
Y215000D01*
X114096D01*
Y214885D01*
X114038D01*
Y214769D01*
X113981D01*
Y214712D01*
X113923D01*
Y214596D01*
X113865D01*
Y214538D01*
X113808D01*
Y214423D01*
X113750D01*
Y214365D01*
X113692D01*
Y214250D01*
X113635D01*
Y214135D01*
X113577D01*
Y214077D01*
X113519D01*
Y213962D01*
X113462D01*
Y213904D01*
X113404D01*
Y213789D01*
X113346D01*
Y213731D01*
X113288D01*
Y213615D01*
X113231D01*
Y213500D01*
X113173D01*
Y213442D01*
X113115D01*
Y213327D01*
X113058D01*
Y213269D01*
X113000D01*
Y213154D01*
X112942D01*
Y213039D01*
X112885D01*
Y212981D01*
X112827D01*
Y212865D01*
X112769D01*
Y212808D01*
X112711D01*
Y212692D01*
X112654D01*
Y212635D01*
X112596D01*
Y212519D01*
X112538D01*
Y212404D01*
X112481D01*
Y212346D01*
X112423D01*
Y212231D01*
X112365D01*
Y212173D01*
X112308D01*
Y212058D01*
X112250D01*
Y212000D01*
X112192D01*
Y211885D01*
X112135D01*
Y211769D01*
X112077D01*
Y211712D01*
X112019D01*
Y211596D01*
X111961D01*
Y211539D01*
X111904D01*
Y211423D01*
X111846D01*
Y211308D01*
X111789D01*
Y211250D01*
X111731D01*
Y211135D01*
X111673D01*
Y211077D01*
X111615D01*
Y210962D01*
X111558D01*
Y210904D01*
X111500D01*
Y210788D01*
X111442D01*
Y210673D01*
X111385D01*
Y210615D01*
X111327D01*
Y210500D01*
X111269D01*
Y210442D01*
X111212D01*
Y210327D01*
X111154D01*
Y210269D01*
X111096D01*
Y210154D01*
X111039D01*
Y210039D01*
X110981D01*
Y209981D01*
X110923D01*
Y209865D01*
X110865D01*
Y209808D01*
X110808D01*
Y209692D01*
X110750D01*
Y209635D01*
X110692D01*
Y209519D01*
X110635D01*
Y209404D01*
X110577D01*
Y209346D01*
X110519D01*
Y209231D01*
X110462D01*
Y209173D01*
X110404D01*
Y209058D01*
X110346D01*
Y208942D01*
X110288D01*
Y208885D01*
X110231D01*
Y208769D01*
X110173D01*
Y208711D01*
X110115D01*
Y208596D01*
X110058D01*
Y208538D01*
X110000D01*
Y208481D01*
X109942D01*
Y208308D01*
X109885D01*
Y208250D01*
X109827D01*
Y208135D01*
X109769D01*
Y208077D01*
X109712D01*
Y208019D01*
X109654D01*
Y207904D01*
X109596D01*
Y207789D01*
X109538D01*
Y207731D01*
X109481D01*
Y207615D01*
X109423D01*
Y207558D01*
X109365D01*
Y207442D01*
X109308D01*
Y207385D01*
X109250D01*
Y207269D01*
X109192D01*
Y207154D01*
X109135D01*
Y207096D01*
X109077D01*
Y206981D01*
X109019D01*
Y206923D01*
X108962D01*
Y206808D01*
X108904D01*
Y206750D01*
X108846D01*
Y206577D01*
X109077D01*
Y206519D01*
X109192D01*
Y206462D01*
X109365D01*
Y206404D01*
X109481D01*
Y206346D01*
X109596D01*
Y206289D01*
X109712D01*
Y206231D01*
X109769D01*
Y206173D01*
X109827D01*
Y206115D01*
X109885D01*
Y206058D01*
X109942D01*
Y205942D01*
X110000D01*
Y205827D01*
X110058D01*
Y205712D01*
X110115D01*
Y205539D01*
X110173D01*
Y205308D01*
X110231D01*
Y204385D01*
X110173D01*
Y204039D01*
X110115D01*
Y203808D01*
X110058D01*
Y203519D01*
X110000D01*
Y203288D01*
X110058D01*
Y203346D01*
X110173D01*
Y203404D01*
X110288D01*
Y203461D01*
X110346D01*
Y203519D01*
X110519D01*
Y203577D01*
X110577D01*
Y203635D01*
X110750D01*
Y203692D01*
X110808D01*
Y203750D01*
X110923D01*
Y203808D01*
X111096D01*
Y203865D01*
X111154D01*
Y203923D01*
X111269D01*
Y203981D01*
X111385D01*
Y204039D01*
X111500D01*
Y204096D01*
X111615D01*
Y204154D01*
X111731D01*
Y204212D01*
X111846D01*
Y204269D01*
X111961D01*
Y204327D01*
X112077D01*
Y204385D01*
X112192D01*
Y204442D01*
X112308D01*
Y204500D01*
X112423D01*
Y204558D01*
X112538D01*
Y204615D01*
X112654D01*
Y204673D01*
X112769D01*
Y204731D01*
X112885D01*
Y204788D01*
X113058D01*
Y204846D01*
X113115D01*
Y204904D01*
X113288D01*
Y204961D01*
X113346D01*
Y205019D01*
X113519D01*
Y205077D01*
X113635D01*
Y205135D01*
X113750D01*
Y205192D01*
X113923D01*
Y205250D01*
X113981D01*
Y205308D01*
X114154D01*
Y205365D01*
X114269D01*
Y205423D01*
X114385D01*
Y205481D01*
X114558D01*
Y205539D01*
X114615D01*
Y205596D01*
X114789D01*
Y205654D01*
X114904D01*
Y205712D01*
X115077D01*
Y205769D01*
X115192D01*
Y205827D01*
X115308D01*
Y205885D01*
X115481D01*
Y205942D01*
X115596D01*
Y206000D01*
X115769D01*
Y206058D01*
X115885D01*
Y206115D01*
X116000D01*
Y206173D01*
X116173D01*
Y206231D01*
X116288D01*
Y206289D01*
X116519D01*
Y206346D01*
X116577D01*
Y206404D01*
X116750D01*
Y206462D01*
X116923D01*
Y206519D01*
X117038D01*
Y206577D01*
X117269D01*
Y206635D01*
X117385D01*
Y206692D01*
X117558D01*
Y206750D01*
X117731D01*
Y206808D01*
X117846D01*
Y206865D01*
X118077D01*
Y206923D01*
X118192D01*
Y206981D01*
X118423D01*
Y207038D01*
X118539D01*
Y207096D01*
X118769D01*
Y207154D01*
X118942D01*
Y207211D01*
X119058D01*
Y207269D01*
X119346D01*
Y207327D01*
X119461D01*
Y207385D01*
X119750D01*
Y207442D01*
X119923D01*
Y207500D01*
X120096D01*
Y207558D01*
X120385D01*
Y207615D01*
X120500D01*
Y207673D01*
X120846D01*
Y207731D01*
X121019D01*
Y207789D01*
X121308D01*
Y207846D01*
X121596D01*
Y207904D01*
X121827D01*
Y207962D01*
X122289D01*
Y208019D01*
X122519D01*
Y208077D01*
X123211D01*
Y208135D01*
X124308D01*
Y208192D01*
X124654D01*
Y208250D01*
X125115D01*
Y208308D01*
X125404D01*
Y208365D01*
X125923D01*
Y208423D01*
X126212D01*
Y208481D01*
X126615D01*
Y208538D01*
X127019D01*
Y208596D01*
X127308D01*
Y208654D01*
X127827D01*
Y208711D01*
X128115D01*
Y208769D01*
X128635D01*
Y208827D01*
X128981D01*
Y208885D01*
X129327D01*
Y208942D01*
X129846D01*
Y209000D01*
X130135D01*
Y209058D01*
X130711D01*
Y209115D01*
X131000D01*
Y209173D01*
X131519D01*
Y209231D01*
X131923D01*
Y209289D01*
X132269D01*
Y209346D01*
X132846D01*
Y209404D01*
X133192D01*
Y209462D01*
X133827D01*
Y209519D01*
X134231D01*
Y209577D01*
X134750D01*
Y209635D01*
X136308D01*
Y209577D01*
X136885D01*
Y209519D01*
X137404D01*
Y209462D01*
X138211D01*
Y209404D01*
X138615D01*
Y209346D01*
X139365D01*
Y209289D01*
X139769D01*
Y209231D01*
X140288D01*
Y209173D01*
X140865D01*
Y209115D01*
X141212D01*
Y209058D01*
X141846D01*
Y209000D01*
X142192D01*
Y208942D01*
X142712D01*
Y208885D01*
X143115D01*
Y208827D01*
X143404D01*
Y208769D01*
X143923D01*
Y208711D01*
X144212D01*
Y208654D01*
X144673D01*
Y208596D01*
X144962D01*
Y208538D01*
X145250D01*
Y208481D01*
X145596D01*
Y208423D01*
X145827D01*
Y208365D01*
X146231D01*
Y208308D01*
X146404D01*
Y208250D01*
X146750D01*
Y208192D01*
X146981D01*
Y208135D01*
X147154D01*
Y208077D01*
X147442D01*
Y208019D01*
X147615D01*
Y207962D01*
X147846D01*
Y207904D01*
X147962D01*
Y207846D01*
X148192D01*
Y207789D01*
X148308D01*
Y207731D01*
X148365D01*
Y207673D01*
X147846D01*
Y207731D01*
X147558D01*
Y207789D01*
X147154D01*
Y207846D01*
X146750D01*
Y207904D01*
X146462D01*
Y207962D01*
X145885D01*
Y208019D01*
X145596D01*
Y208077D01*
X145077D01*
Y208135D01*
X144731D01*
Y208192D01*
X144327D01*
Y208250D01*
X143808D01*
Y208308D01*
X143462D01*
Y208365D01*
X142827D01*
Y208423D01*
X142481D01*
Y208481D01*
X141904D01*
Y208538D01*
X141385D01*
Y208596D01*
X140923D01*
Y208654D01*
X140115D01*
Y208711D01*
X139712D01*
Y208769D01*
X138731D01*
Y208827D01*
X137923D01*
Y208885D01*
X135904D01*
Y208827D01*
X135788D01*
Y208769D01*
X135327D01*
Y208711D01*
X135038D01*
Y208654D01*
X134519D01*
Y208596D01*
X134231D01*
Y208538D01*
X133827D01*
Y208481D01*
X133423D01*
Y208423D01*
X133135D01*
Y208365D01*
X132615D01*
Y208308D01*
X132327D01*
Y208250D01*
X131865D01*
Y208192D01*
X131519D01*
Y208135D01*
X131173D01*
Y208077D01*
X130654D01*
Y208019D01*
X130365D01*
Y207962D01*
X129846D01*
Y207904D01*
X129558D01*
Y207846D01*
X129154D01*
Y207789D01*
X128692D01*
Y207731D01*
X128404D01*
Y207673D01*
X127885D01*
Y207615D01*
X127596D01*
Y207558D01*
X127077D01*
Y207500D01*
X126731D01*
Y207442D01*
X126385D01*
Y207385D01*
X125865D01*
Y207327D01*
X125577D01*
Y207269D01*
X125058D01*
Y207211D01*
X124712D01*
Y207154D01*
X124308D01*
Y207096D01*
X123962D01*
Y207038D01*
X123731D01*
Y206981D01*
X123385D01*
Y206923D01*
X123211D01*
Y206865D01*
X122923D01*
Y206808D01*
X122750D01*
Y206750D01*
X122577D01*
Y206692D01*
X122289D01*
Y206635D01*
X122173D01*
Y206577D01*
X121885D01*
Y206519D01*
X121769D01*
Y206462D01*
X121596D01*
Y206404D01*
X121365D01*
Y206346D01*
X121250D01*
Y206289D01*
X121019D01*
Y206231D01*
X120904D01*
Y206173D01*
X120673D01*
Y206115D01*
X120558D01*
Y206058D01*
X120385D01*
Y206000D01*
X120211D01*
Y205942D01*
X120096D01*
Y205885D01*
X119865D01*
Y205827D01*
X119750D01*
Y205769D01*
X119577D01*
Y205712D01*
X119404D01*
Y205654D01*
X119346D01*
Y205596D01*
X119115D01*
Y205539D01*
X119000D01*
Y205481D01*
X118827D01*
Y205423D01*
X118712D01*
Y205365D01*
X118539D01*
Y205308D01*
X118365D01*
Y205250D01*
X118308D01*
Y205192D01*
X118077D01*
Y205135D01*
X117962D01*
Y205077D01*
X117846D01*
Y205019D01*
X117673D01*
Y204961D01*
X117558D01*
Y204904D01*
X117385D01*
Y204846D01*
X117269D01*
Y204788D01*
X117096D01*
Y204731D01*
X116981D01*
Y204673D01*
X116865D01*
Y204615D01*
X116692D01*
Y204558D01*
X116635D01*
Y204500D01*
X116404D01*
Y204442D01*
X116346D01*
Y204385D01*
X116173D01*
Y204327D01*
X116058D01*
Y204269D01*
X115942D01*
Y204212D01*
X115769D01*
Y204154D01*
X115654D01*
Y204096D01*
X115481D01*
Y204039D01*
X115365D01*
Y203981D01*
X115308D01*
Y203923D01*
X115135D01*
Y203865D01*
X115019D01*
Y203808D01*
X114846D01*
Y203750D01*
X114731D01*
Y203692D01*
X114615D01*
Y203635D01*
X114500D01*
Y203577D01*
X114385D01*
Y203519D01*
X114212D01*
Y203461D01*
X114154D01*
Y203404D01*
X113981D01*
Y203346D01*
X113865D01*
Y203288D01*
X113750D01*
Y203231D01*
X113577D01*
Y203173D01*
X113519D01*
Y203115D01*
X113346D01*
Y203058D01*
X113231D01*
Y203000D01*
X113115D01*
Y202942D01*
X113000D01*
Y202885D01*
X112885D01*
Y202827D01*
X112711D01*
Y202769D01*
X112654D01*
Y202712D01*
X112481D01*
Y202654D01*
X112365D01*
Y202596D01*
X112308D01*
Y202539D01*
X112135D01*
Y202481D01*
X112077D01*
Y202423D01*
X111904D01*
Y202365D01*
X111789D01*
Y202308D01*
X111673D01*
Y202250D01*
X111558D01*
Y202192D01*
X111442D01*
Y202135D01*
X111269D01*
Y202077D01*
X111212D01*
Y202019D01*
X111039D01*
Y201961D01*
X110981D01*
Y201904D01*
X110923D01*
Y201846D01*
X110981D01*
Y201789D01*
X111269D01*
Y201731D01*
X111789D01*
Y201673D01*
X112077D01*
Y201615D01*
X112481D01*
Y201558D01*
X112885D01*
Y201500D01*
X113173D01*
Y201442D01*
X113692D01*
Y201385D01*
X113923D01*
Y201327D01*
X114385D01*
Y201269D01*
X114673D01*
Y201211D01*
X114962D01*
Y201154D01*
X115365D01*
Y201096D01*
X115596D01*
Y201038D01*
X116058D01*
Y200981D01*
X116288D01*
Y200923D01*
X116577D01*
Y200865D01*
X116923D01*
Y200808D01*
X117154D01*
Y200750D01*
X117558D01*
Y200692D01*
X117731D01*
Y200635D01*
X118077D01*
Y200577D01*
X118308D01*
Y200519D01*
X118539D01*
Y200462D01*
X118827D01*
Y200404D01*
X119000D01*
Y200346D01*
X119289D01*
Y200289D01*
X119461D01*
Y200231D01*
X119692D01*
Y200173D01*
X119923D01*
Y200115D01*
X120038D01*
Y200058D01*
X120327D01*
Y200000D01*
X120442D01*
Y199942D01*
X120673D01*
Y199885D01*
X120788D01*
Y199827D01*
X120904D01*
Y199769D01*
X121077D01*
Y199711D01*
X121192D01*
Y199654D01*
X121365D01*
Y199596D01*
X121423D01*
Y199538D01*
X121538D01*
Y199481D01*
X121596D01*
Y199423D01*
X121712D01*
Y199365D01*
X121885D01*
Y199308D01*
X121942D01*
Y199250D01*
X122115D01*
Y199192D01*
X122231D01*
Y199135D01*
X122346D01*
Y199077D01*
X122462D01*
Y199019D01*
X122577D01*
Y198962D01*
X122692D01*
Y198904D01*
X122808D01*
Y198846D01*
X122923D01*
Y198789D01*
X122981D01*
Y198731D01*
X123096D01*
Y198673D01*
X123211D01*
Y198615D01*
X123269D01*
Y198558D01*
X123442D01*
Y198500D01*
X123500D01*
Y198442D01*
X123615D01*
Y198385D01*
X123731D01*
Y198327D01*
X123788D01*
Y198269D01*
X123904D01*
Y198211D01*
X124019D01*
Y198154D01*
X124077D01*
Y198096D01*
X124192D01*
Y198039D01*
X124250D01*
Y197981D01*
X124423D01*
Y197923D01*
X124481D01*
Y197865D01*
X124596D01*
Y197808D01*
X124654D01*
Y197750D01*
X124769D01*
Y197692D01*
X124885D01*
Y197635D01*
X124942D01*
Y197577D01*
X125058D01*
Y197519D01*
X125115D01*
Y197462D01*
X125231D01*
Y197404D01*
X125288D01*
Y197346D01*
X125346D01*
Y197288D01*
X125519D01*
Y197231D01*
X125577D01*
Y197173D01*
X125635D01*
Y197115D01*
X125750D01*
Y197058D01*
X125808D01*
Y197000D01*
X125923D01*
Y196942D01*
X125981D01*
Y196885D01*
X126096D01*
Y196827D01*
X126154D01*
Y196769D01*
X126269D01*
Y196712D01*
X126385D01*
Y196654D01*
X126442D01*
Y196596D01*
X126558D01*
Y196539D01*
X126615D01*
Y196481D01*
X126673D01*
Y196423D01*
X126789D01*
Y196365D01*
X126846D01*
Y196308D01*
X126961D01*
Y196250D01*
X127019D01*
Y196192D01*
X127135D01*
Y196135D01*
X127192D01*
Y196077D01*
X127308D01*
Y196019D01*
X127365D01*
Y195962D01*
X127423D01*
Y195904D01*
X127538D01*
Y195846D01*
X127596D01*
Y195788D01*
X127712D01*
Y195731D01*
X127769D01*
Y195673D01*
X127827D01*
Y195615D01*
X127942D01*
Y195558D01*
X128000D01*
Y195500D01*
X128058D01*
Y195442D01*
X128173D01*
Y195385D01*
X128231D01*
Y195327D01*
X128346D01*
Y195269D01*
X128404D01*
Y195212D01*
X128462D01*
Y195154D01*
X128519D01*
Y195096D01*
X128577D01*
Y195039D01*
X128635D01*
Y194981D01*
X128519D01*
Y195039D01*
X128404D01*
Y195096D01*
X128231D01*
Y195154D01*
X128173D01*
Y195212D01*
X128000D01*
Y195269D01*
X127942D01*
Y195327D01*
X127827D01*
Y195385D01*
X127654D01*
Y195442D01*
X127596D01*
Y195500D01*
X127423D01*
Y195558D01*
X127365D01*
Y195615D01*
X127192D01*
Y195673D01*
X127077D01*
Y195731D01*
X127019D01*
Y195788D01*
X126846D01*
Y195846D01*
X126789D01*
Y195904D01*
X126615D01*
Y195962D01*
X126558D01*
Y196019D01*
X126442D01*
Y196077D01*
X126327D01*
Y196135D01*
X126212D01*
Y196192D01*
X126096D01*
Y196250D01*
X125981D01*
Y196308D01*
X125865D01*
Y196365D01*
X125750D01*
Y196423D01*
X125692D01*
Y196481D01*
X125519D01*
Y196539D01*
X125462D01*
Y196596D01*
X125288D01*
Y196654D01*
X125231D01*
Y196712D01*
X125115D01*
Y196769D01*
X125000D01*
Y196827D01*
X124885D01*
Y196885D01*
X124769D01*
Y196942D01*
X124654D01*
Y197000D01*
X124538D01*
Y197058D01*
X124423D01*
Y197115D01*
X124365D01*
Y197173D01*
X124192D01*
Y197231D01*
X124135D01*
Y197288D01*
X123962D01*
Y197346D01*
X123904D01*
Y197404D01*
X123788D01*
Y197462D01*
X123673D01*
Y197519D01*
X123558D01*
Y197577D01*
X123442D01*
Y197635D01*
X123385D01*
Y197692D01*
X123211D01*
Y197750D01*
X123154D01*
Y197808D01*
X123039D01*
Y197865D01*
X122865D01*
Y197923D01*
X122808D01*
Y197981D01*
X122692D01*
Y198039D01*
X122577D01*
Y198096D01*
X122462D01*
Y198154D01*
X122346D01*
Y198211D01*
X122289D01*
Y198269D01*
X122115D01*
Y198327D01*
X122058D01*
Y198385D01*
X121885D01*
Y198442D01*
X121827D01*
Y198500D01*
X121596D01*
Y198442D01*
X121481D01*
Y198385D01*
X120615D01*
Y198442D01*
X120500D01*
Y198500D01*
X120327D01*
Y198558D01*
X120154D01*
Y198615D01*
X120038D01*
Y198673D01*
X119750D01*
Y198731D01*
X119635D01*
Y198789D01*
X119404D01*
Y198846D01*
X119173D01*
Y198904D01*
X119058D01*
Y198962D01*
X118712D01*
Y199019D01*
X118596D01*
Y199077D01*
X118250D01*
Y199135D01*
X118019D01*
Y199192D01*
X117788D01*
Y199250D01*
X117442D01*
Y199308D01*
X117269D01*
Y199365D01*
X116808D01*
Y199423D01*
X116519D01*
Y199481D01*
X116115D01*
Y199538D01*
X115712D01*
Y199596D01*
X115365D01*
Y199654D01*
X114673D01*
Y199711D01*
X114269D01*
Y199769D01*
X113346D01*
Y199827D01*
X112481D01*
Y199885D01*
X109365D01*
Y199827D01*
X107865D01*
Y199885D01*
X107519D01*
Y199942D01*
X107173D01*
Y200000D01*
X107058D01*
Y200058D01*
X106827D01*
Y200115D01*
X106712D01*
Y200173D01*
X106596D01*
Y200231D01*
X106481D01*
Y200289D01*
X106423D01*
Y200346D01*
X106308D01*
Y200289D01*
X106250D01*
Y199942D01*
X106192D01*
Y199596D01*
X106135D01*
Y199481D01*
X106077D01*
Y199308D01*
X106019D01*
Y199192D01*
X105962D01*
Y199135D01*
X105904D01*
Y199019D01*
X105846D01*
Y198962D01*
X105788D01*
Y198846D01*
X105731D01*
Y198789D01*
X105615D01*
Y198731D01*
X105558D01*
Y198673D01*
X105442D01*
Y198615D01*
X105385D01*
Y196827D01*
X105327D01*
Y196019D01*
X105269D01*
Y195385D01*
X105211D01*
Y194923D01*
X105154D01*
Y194692D01*
X105096D01*
Y194346D01*
X105038D01*
Y194058D01*
X104981D01*
Y193423D01*
X104923D01*
Y192962D01*
X104865D01*
Y192558D01*
X104808D01*
Y191923D01*
X104750D01*
Y191635D01*
X104692D01*
Y191000D01*
X104635D01*
Y190654D01*
X104577D01*
Y190192D01*
X104519D01*
Y189731D01*
X104461D01*
Y189385D01*
X104404D01*
Y188865D01*
X104346D01*
Y188577D01*
X104289D01*
Y188115D01*
X104231D01*
Y187769D01*
X104173D01*
Y187539D01*
X104115D01*
Y187135D01*
X104058D01*
Y186904D01*
X104000D01*
Y186615D01*
X103942D01*
Y186558D01*
X103827D01*
Y186673D01*
X103769D01*
Y187250D01*
X103712D01*
Y190077D01*
X103769D01*
Y191808D01*
X103827D01*
Y193712D01*
X103885D01*
Y194750D01*
X103827D01*
Y196769D01*
X103885D01*
Y197404D01*
X103712D01*
Y197346D01*
X103654D01*
Y197288D01*
X103596D01*
Y197231D01*
X103539D01*
Y197173D01*
X103481D01*
Y197115D01*
X103423D01*
Y197000D01*
X103308D01*
Y196885D01*
X103250D01*
Y196827D01*
X103192D01*
Y196769D01*
X103135D01*
Y196712D01*
X103077D01*
Y196654D01*
X103019D01*
Y196596D01*
X102962D01*
Y196539D01*
X102904D01*
Y196423D01*
X102846D01*
Y196365D01*
X102788D01*
Y196308D01*
X102731D01*
Y196250D01*
X102673D01*
Y196192D01*
X102615D01*
Y196077D01*
X102558D01*
Y196019D01*
X102500D01*
Y195962D01*
X102442D01*
Y195904D01*
X102385D01*
Y195846D01*
X102327D01*
Y195788D01*
X102269D01*
Y195731D01*
X102212D01*
Y195615D01*
X102154D01*
Y195558D01*
X102096D01*
Y195500D01*
X102038D01*
Y195385D01*
X101981D01*
Y195327D01*
X101923D01*
Y195269D01*
X101865D01*
Y195212D01*
X101808D01*
Y195154D01*
X101750D01*
Y195039D01*
X101692D01*
Y194981D01*
X101635D01*
Y194923D01*
X101577D01*
Y194865D01*
X101519D01*
Y194750D01*
X101461D01*
Y194692D01*
X101404D01*
Y194635D01*
X101346D01*
Y194577D01*
X101288D01*
Y194519D01*
X101231D01*
Y194404D01*
X101173D01*
Y194346D01*
X101115D01*
Y194289D01*
X101058D01*
Y194231D01*
X101000D01*
Y194173D01*
X100942D01*
Y194058D01*
X100885D01*
Y194000D01*
X100827D01*
Y193942D01*
X100769D01*
Y193827D01*
X100711D01*
Y193769D01*
X100654D01*
Y193712D01*
X100596D01*
Y193654D01*
X100539D01*
Y193538D01*
X100481D01*
Y193481D01*
X100423D01*
Y193423D01*
X100365D01*
Y193365D01*
X100308D01*
Y193308D01*
X100250D01*
Y193192D01*
X100192D01*
Y193135D01*
X100135D01*
Y193077D01*
X100077D01*
Y193019D01*
X100019D01*
Y192904D01*
X99962D01*
Y192846D01*
X99904D01*
Y192789D01*
X99846D01*
Y192673D01*
X99789D01*
Y192615D01*
X99731D01*
Y192558D01*
X99673D01*
Y192500D01*
X99615D01*
Y192442D01*
X99558D01*
Y192327D01*
X99500D01*
Y192269D01*
X99442D01*
Y192212D01*
X99385D01*
Y192154D01*
X99327D01*
Y192038D01*
X99269D01*
Y191981D01*
X99212D01*
Y191923D01*
X99154D01*
Y191808D01*
X99096D01*
Y191750D01*
X99038D01*
Y191692D01*
X98981D01*
Y191635D01*
X98923D01*
Y191577D01*
X98865D01*
Y191462D01*
X98808D01*
Y191404D01*
X98750D01*
Y191346D01*
X98692D01*
Y191289D01*
X98635D01*
Y191173D01*
X98577D01*
Y191115D01*
X98519D01*
Y191058D01*
X98462D01*
Y191000D01*
X98404D01*
Y190942D01*
X98346D01*
Y190827D01*
X98288D01*
Y190769D01*
X98231D01*
Y190712D01*
X98173D01*
Y190654D01*
X98115D01*
Y190539D01*
X98058D01*
Y190481D01*
X98000D01*
Y190423D01*
X97942D01*
Y190365D01*
X97885D01*
Y190250D01*
X97827D01*
Y190192D01*
X97769D01*
Y190135D01*
X97711D01*
Y190077D01*
X97654D01*
Y190019D01*
X97596D01*
Y189904D01*
X97538D01*
Y189846D01*
X97481D01*
Y189788D01*
X97423D01*
Y189731D01*
X97365D01*
Y189615D01*
X97308D01*
Y189558D01*
X97250D01*
Y189500D01*
X97192D01*
Y189442D01*
X97135D01*
Y189385D01*
X97077D01*
Y189269D01*
X97019D01*
Y189212D01*
X96962D01*
Y189154D01*
X96904D01*
Y189096D01*
X96846D01*
Y188981D01*
X96789D01*
Y188923D01*
X96731D01*
Y188865D01*
X96673D01*
Y188808D01*
X96615D01*
Y188750D01*
X96558D01*
Y188635D01*
X96500D01*
Y188577D01*
X96442D01*
Y188519D01*
X96385D01*
Y188461D01*
X96327D01*
Y188404D01*
X96269D01*
Y188288D01*
X96212D01*
Y188231D01*
X96154D01*
Y188173D01*
X96096D01*
Y188115D01*
X96039D01*
Y188058D01*
X95981D01*
Y187942D01*
X95923D01*
Y187885D01*
X95865D01*
Y187827D01*
X95808D01*
Y187769D01*
X95750D01*
Y187712D01*
X95692D01*
Y187596D01*
X95635D01*
Y187539D01*
X95577D01*
Y187481D01*
X95519D01*
Y187423D01*
X95462D01*
Y187365D01*
X95404D01*
Y187308D01*
X95346D01*
Y187192D01*
X95288D01*
Y187135D01*
X95231D01*
Y187077D01*
X95173D01*
Y187019D01*
X95115D01*
Y186962D01*
X95058D01*
Y186904D01*
X95000D01*
Y186789D01*
X94942D01*
Y186731D01*
X94885D01*
Y186673D01*
X94827D01*
Y186615D01*
X94769D01*
Y186558D01*
X94712D01*
Y186500D01*
X94654D01*
Y186442D01*
X94596D01*
Y186327D01*
X94538D01*
Y186211D01*
X94481D01*
Y186154D01*
X94423D01*
Y186038D01*
X94365D01*
Y185981D01*
X94308D01*
Y185865D01*
X94250D01*
Y185808D01*
X94192D01*
Y185692D01*
X94135D01*
Y185577D01*
X94077D01*
Y185519D01*
X94019D01*
Y185404D01*
X93961D01*
Y185346D01*
X93904D01*
Y185231D01*
X93846D01*
Y185115D01*
X93788D01*
Y185058D01*
X93731D01*
Y184942D01*
X93673D01*
Y184885D01*
X93615D01*
Y184769D01*
X93558D01*
Y184711D01*
X93500D01*
Y184596D01*
X93442D01*
Y184481D01*
X93385D01*
Y184423D01*
X93327D01*
Y184308D01*
X93269D01*
Y184250D01*
X93211D01*
Y184135D01*
X93154D01*
Y184019D01*
X93096D01*
Y183962D01*
X93039D01*
Y183846D01*
X92981D01*
Y183789D01*
X92923D01*
Y183673D01*
X92865D01*
Y183615D01*
X92808D01*
Y183500D01*
X92750D01*
Y183385D01*
X92692D01*
Y183327D01*
X92635D01*
Y183211D01*
X92577D01*
Y183154D01*
X92519D01*
Y183039D01*
X92462D01*
Y182981D01*
X92404D01*
Y182865D01*
X92346D01*
Y182750D01*
X92289D01*
Y182692D01*
X92231D01*
Y182577D01*
X92173D01*
Y182519D01*
X92115D01*
Y182404D01*
X92058D01*
Y182346D01*
X92000D01*
Y182231D01*
X91942D01*
Y182115D01*
X91885D01*
Y182058D01*
X91827D01*
Y181942D01*
X91769D01*
Y181885D01*
X91712D01*
Y181769D01*
X91654D01*
Y181654D01*
X91596D01*
Y181596D01*
X91538D01*
Y181481D01*
X91481D01*
Y181423D01*
X91423D01*
Y181308D01*
X91365D01*
Y181250D01*
X91308D01*
Y181192D01*
X91250D01*
Y181077D01*
X91192D01*
Y180961D01*
X91135D01*
Y180846D01*
X91077D01*
Y180788D01*
X91019D01*
Y180731D01*
X90962D01*
Y180615D01*
X90904D01*
Y180558D01*
X90846D01*
Y180442D01*
X90788D01*
Y180385D01*
X90731D01*
Y180269D01*
X90673D01*
Y180154D01*
X90615D01*
Y180096D01*
X90558D01*
Y179981D01*
X90500D01*
Y179923D01*
X90442D01*
Y179808D01*
X90385D01*
Y179750D01*
X90327D01*
Y179635D01*
X90269D01*
Y179519D01*
X90212D01*
Y179461D01*
X90154D01*
Y179346D01*
X90096D01*
Y179289D01*
X90038D01*
Y179173D01*
X89981D01*
Y179115D01*
X89923D01*
Y179000D01*
X89865D01*
Y178885D01*
X89808D01*
Y178827D01*
X89750D01*
Y178712D01*
X89692D01*
Y178654D01*
X89635D01*
Y178596D01*
X89577D01*
Y178481D01*
X89519D01*
Y178423D01*
X89461D01*
Y178308D01*
X89404D01*
Y178250D01*
X89346D01*
Y178135D01*
X89289D01*
Y178019D01*
X89231D01*
Y177962D01*
X89173D01*
Y177846D01*
X89115D01*
Y177789D01*
X89058D01*
Y177673D01*
X89000D01*
Y177615D01*
X88942D01*
Y177500D01*
X88885D01*
Y177442D01*
X88827D01*
Y177385D01*
X88769D01*
Y177269D01*
X88712D01*
Y177212D01*
X88654D01*
Y177096D01*
X88596D01*
Y177038D01*
X88539D01*
Y176923D01*
X88481D01*
Y176808D01*
X88365D01*
Y176692D01*
X88308D01*
Y176635D01*
X88250D01*
Y176519D01*
X88192D01*
Y176462D01*
X88135D01*
Y176404D01*
X88077D01*
Y176346D01*
X88019D01*
Y176289D01*
X87962D01*
Y176173D01*
X87904D01*
Y176115D01*
X87846D01*
Y176058D01*
X87788D01*
Y176000D01*
X87731D01*
Y175942D01*
X87673D01*
Y175827D01*
X87615D01*
Y175769D01*
X87558D01*
Y175711D01*
X87500D01*
Y175596D01*
X87442D01*
Y175539D01*
X87385D01*
Y175481D01*
X87327D01*
Y175423D01*
X87269D01*
Y175365D01*
X87212D01*
Y175250D01*
X87154D01*
Y175192D01*
X87096D01*
Y175135D01*
X87038D01*
Y175077D01*
X86981D01*
Y174961D01*
X86923D01*
Y174904D01*
X86865D01*
Y174846D01*
X86808D01*
Y174788D01*
X86750D01*
Y174731D01*
X86692D01*
Y174615D01*
X86635D01*
Y174558D01*
X86577D01*
Y174500D01*
X86519D01*
Y174442D01*
X86461D01*
Y174385D01*
X86404D01*
Y174269D01*
X86346D01*
Y174212D01*
X86288D01*
Y174154D01*
X86231D01*
Y174096D01*
X86173D01*
Y173981D01*
X86115D01*
Y173923D01*
X86058D01*
Y173865D01*
X86000D01*
Y173808D01*
X85942D01*
Y173750D01*
X85885D01*
Y173635D01*
X85827D01*
Y173577D01*
X85769D01*
Y173519D01*
X85711D01*
Y173462D01*
X85654D01*
Y173519D01*
X85596D01*
Y173635D01*
X85654D01*
Y173750D01*
X85711D01*
Y173923D01*
X85769D01*
Y174039D01*
X85827D01*
Y174212D01*
X85885D01*
Y174385D01*
X85942D01*
Y174442D01*
X86000D01*
Y174615D01*
X86058D01*
Y174731D01*
X86115D01*
Y174846D01*
X86173D01*
Y174961D01*
X86231D01*
Y175077D01*
X86288D01*
Y175250D01*
X86346D01*
Y175308D01*
X86404D01*
Y175481D01*
X86461D01*
Y175539D01*
X86519D01*
Y175654D01*
X86577D01*
Y175769D01*
X86635D01*
Y175885D01*
X86692D01*
Y176000D01*
X86750D01*
Y176115D01*
X86808D01*
Y176231D01*
X86865D01*
Y176346D01*
X86923D01*
Y176404D01*
X86981D01*
Y176577D01*
X87038D01*
Y176635D01*
X87096D01*
Y176750D01*
X87154D01*
Y176865D01*
X87212D01*
Y176981D01*
X87269D01*
Y177096D01*
X87327D01*
Y177154D01*
X87385D01*
Y177269D01*
X87442D01*
Y177385D01*
X87500D01*
Y177500D01*
X87558D01*
Y177615D01*
X87615D01*
Y177673D01*
X87673D01*
Y177789D01*
X87731D01*
Y177904D01*
X87788D01*
Y178019D01*
X87846D01*
Y178077D01*
X87904D01*
Y178192D01*
X87962D01*
Y178308D01*
X88019D01*
Y178365D01*
X88077D01*
Y178538D01*
X88135D01*
Y178596D01*
X88192D01*
Y178712D01*
X88250D01*
Y178827D01*
X88308D01*
Y178885D01*
X88365D01*
Y179000D01*
X88423D01*
Y179115D01*
X88481D01*
Y179231D01*
X88539D01*
Y179289D01*
X88596D01*
Y179404D01*
X88654D01*
Y179519D01*
X88712D01*
Y179577D01*
X88769D01*
Y179692D01*
X88827D01*
Y179808D01*
X88885D01*
Y179923D01*
X88942D01*
Y179981D01*
X89000D01*
Y180096D01*
X89058D01*
Y180212D01*
X89115D01*
Y180269D01*
X89173D01*
Y180385D01*
X89231D01*
Y180500D01*
X89289D01*
Y180558D01*
X89346D01*
Y180673D01*
X89404D01*
Y180788D01*
X89461D01*
Y180904D01*
X89519D01*
Y180961D01*
X89577D01*
Y181077D01*
X89635D01*
Y181192D01*
X89692D01*
Y181250D01*
X89750D01*
Y181365D01*
X89808D01*
Y181481D01*
X89865D01*
Y181596D01*
X89923D01*
Y181654D01*
X89981D01*
Y181769D01*
X90038D01*
Y181885D01*
X90096D01*
Y181942D01*
X90154D01*
Y182058D01*
X90212D01*
Y182115D01*
X90269D01*
Y182231D01*
X90327D01*
Y182346D01*
X90385D01*
Y182404D01*
X90442D01*
Y182519D01*
X90500D01*
Y182635D01*
X90558D01*
Y182750D01*
X90615D01*
Y182808D01*
X90673D01*
Y182923D01*
X90731D01*
Y183039D01*
X90788D01*
Y183096D01*
X90846D01*
Y183211D01*
X90904D01*
Y183269D01*
X90962D01*
Y183385D01*
X91019D01*
Y183500D01*
X91077D01*
Y183558D01*
X91135D01*
Y183673D01*
X91192D01*
Y183731D01*
X91250D01*
Y183846D01*
X91308D01*
Y183962D01*
X91365D01*
Y184019D01*
X91423D01*
Y184135D01*
X91481D01*
Y184192D01*
X91538D01*
Y184365D01*
X91596D01*
Y184423D01*
X91654D01*
Y184538D01*
X91712D01*
Y184596D01*
X91769D01*
Y184711D01*
X91827D01*
Y184827D01*
X91885D01*
Y184885D01*
X91942D01*
Y185000D01*
X92000D01*
Y185058D01*
X92058D01*
Y185173D01*
X92115D01*
Y185289D01*
X92173D01*
Y185346D01*
X92231D01*
Y185462D01*
X92289D01*
Y185519D01*
X92346D01*
Y185635D01*
X92404D01*
Y185750D01*
X92462D01*
Y185808D01*
X92519D01*
Y185981D01*
X92577D01*
Y186038D01*
X92635D01*
Y186154D01*
X92692D01*
Y186211D01*
X92750D01*
Y186327D01*
X92808D01*
Y186385D01*
X92865D01*
Y186442D01*
X92923D01*
Y186615D01*
X92981D01*
Y186673D01*
X93039D01*
Y186731D01*
X93096D01*
Y186846D01*
X93154D01*
Y186904D01*
X93211D01*
Y187019D01*
X93269D01*
Y187077D01*
X93327D01*
Y187192D01*
X93385D01*
Y187250D01*
X93442D01*
Y187308D01*
X93500D01*
Y187423D01*
X93558D01*
Y187481D01*
X93615D01*
Y187596D01*
X93673D01*
Y187654D01*
X93731D01*
Y187769D01*
X93788D01*
Y187827D01*
X93846D01*
Y187885D01*
X93904D01*
Y188000D01*
X93961D01*
Y188058D01*
X94019D01*
Y188173D01*
X94077D01*
Y188231D01*
X94135D01*
Y188288D01*
X94192D01*
Y188404D01*
X94250D01*
Y188461D01*
X94308D01*
Y188577D01*
X94365D01*
Y188635D01*
X94423D01*
Y188692D01*
X94481D01*
Y188808D01*
X94538D01*
Y188865D01*
X94596D01*
Y188981D01*
X94654D01*
Y189039D01*
X94712D01*
Y189096D01*
X94769D01*
Y189154D01*
X94827D01*
Y189269D01*
X94885D01*
Y189327D01*
X94942D01*
Y189385D01*
X95000D01*
Y189500D01*
X95058D01*
Y189558D01*
X95115D01*
Y189673D01*
X95173D01*
Y189731D01*
X95231D01*
Y189788D01*
X95288D01*
Y189904D01*
X95346D01*
Y189961D01*
X95404D01*
Y190019D01*
X95462D01*
Y190077D01*
X95519D01*
Y190192D01*
X95577D01*
Y190250D01*
X95635D01*
Y190308D01*
X95692D01*
Y190423D01*
X95750D01*
Y190481D01*
X95808D01*
Y190539D01*
X95865D01*
Y190654D01*
X95923D01*
Y190712D01*
X95981D01*
Y190769D01*
X96039D01*
Y190827D01*
X96096D01*
Y190942D01*
X96154D01*
Y191000D01*
X96212D01*
Y191058D01*
X96269D01*
Y191173D01*
X96327D01*
Y191231D01*
X96385D01*
Y191289D01*
X96442D01*
Y191346D01*
X96500D01*
Y191462D01*
X96558D01*
Y191519D01*
X96615D01*
Y191577D01*
X96673D01*
Y191692D01*
X96731D01*
Y191750D01*
X96789D01*
Y191808D01*
X96846D01*
Y191923D01*
X96904D01*
Y191981D01*
X96962D01*
Y192038D01*
X97019D01*
Y192096D01*
X97077D01*
Y192212D01*
X97135D01*
Y192269D01*
X97192D01*
Y192327D01*
X97250D01*
Y192442D01*
X97308D01*
Y192500D01*
X97365D01*
Y192558D01*
X97423D01*
Y192615D01*
X97481D01*
Y192731D01*
X97538D01*
Y192789D01*
X97596D01*
Y192846D01*
X97654D01*
Y192904D01*
X97711D01*
Y193019D01*
X97769D01*
Y193077D01*
X97827D01*
Y193135D01*
X97885D01*
Y193192D01*
X97942D01*
Y193308D01*
X98000D01*
Y193365D01*
X98058D01*
Y193423D01*
X98115D01*
Y193481D01*
X98173D01*
Y193596D01*
X98231D01*
Y193654D01*
X98288D01*
Y193712D01*
X98346D01*
Y193827D01*
X98404D01*
Y193885D01*
X98462D01*
Y193942D01*
X98519D01*
Y194000D01*
X98577D01*
Y194058D01*
X98635D01*
Y194173D01*
X98692D01*
Y194231D01*
X98750D01*
Y194289D01*
X98808D01*
Y194346D01*
X98865D01*
Y194461D01*
X98923D01*
Y194519D01*
X98981D01*
Y194577D01*
X99038D01*
Y194635D01*
X99096D01*
Y194692D01*
X99154D01*
Y194808D01*
X99212D01*
Y194865D01*
X99269D01*
Y194923D01*
X99327D01*
Y195039D01*
X99385D01*
Y195096D01*
X99442D01*
Y195154D01*
X99500D01*
Y195212D01*
X99558D01*
Y195327D01*
X99615D01*
Y195385D01*
X99673D01*
Y195442D01*
X99731D01*
Y195500D01*
X99789D01*
Y195558D01*
X99846D01*
Y195673D01*
X99904D01*
Y195731D01*
X99962D01*
Y195788D01*
X100019D01*
Y195846D01*
X100077D01*
Y195904D01*
X100135D01*
Y196019D01*
X100192D01*
Y196077D01*
X100250D01*
Y196135D01*
X100308D01*
Y196192D01*
X100365D01*
Y196250D01*
X100423D01*
Y196365D01*
X100481D01*
Y196423D01*
X100539D01*
Y196481D01*
X100596D01*
Y196539D01*
X100654D01*
Y196654D01*
X100711D01*
Y196712D01*
X100769D01*
Y196769D01*
X100827D01*
Y196827D01*
X100885D01*
Y196885D01*
X100942D01*
Y197000D01*
X101000D01*
Y197058D01*
X101058D01*
Y197115D01*
X101115D01*
Y197173D01*
X101173D01*
Y197231D01*
X101231D01*
Y197346D01*
X101288D01*
Y197404D01*
X101346D01*
Y197462D01*
X101404D01*
Y197519D01*
X101461D01*
Y197635D01*
X101519D01*
Y197692D01*
X101577D01*
Y197750D01*
X101635D01*
Y197808D01*
X101692D01*
Y197865D01*
X101750D01*
Y197923D01*
X101808D01*
Y198039D01*
X101865D01*
Y198096D01*
X101923D01*
Y198154D01*
X101981D01*
Y198211D01*
X102038D01*
Y198327D01*
X102096D01*
Y198385D01*
X102154D01*
Y198442D01*
X102212D01*
Y198500D01*
X102269D01*
Y198558D01*
X102327D01*
Y199019D01*
X102269D01*
Y199135D01*
X102212D01*
Y199365D01*
X102154D01*
Y199481D01*
X102096D01*
Y199423D01*
X102038D01*
Y199365D01*
X101981D01*
Y199308D01*
X101923D01*
Y199250D01*
X101865D01*
Y199192D01*
X101808D01*
Y199135D01*
X101750D01*
Y199077D01*
X101635D01*
Y198962D01*
X101519D01*
Y198904D01*
X101461D01*
Y198846D01*
X101404D01*
Y198789D01*
X101346D01*
Y198731D01*
X101288D01*
Y198673D01*
X101173D01*
Y198615D01*
X101115D01*
Y198558D01*
X101058D01*
Y198500D01*
X101000D01*
Y198442D01*
X100885D01*
Y198385D01*
X100827D01*
Y198327D01*
X100769D01*
Y198269D01*
X100654D01*
Y198211D01*
X100596D01*
Y198154D01*
X100481D01*
Y198096D01*
X100423D01*
Y198039D01*
X100365D01*
Y197981D01*
X100192D01*
Y197923D01*
X100135D01*
Y197865D01*
X100019D01*
Y197808D01*
X99962D01*
Y197750D01*
X99846D01*
Y197692D01*
X99731D01*
Y197635D01*
X99615D01*
Y197577D01*
X99500D01*
Y197519D01*
X99385D01*
Y197462D01*
X99269D01*
Y197404D01*
X99096D01*
Y197346D01*
X99038D01*
Y197288D01*
X98865D01*
Y197231D01*
X98750D01*
Y197173D01*
X98577D01*
Y197115D01*
X98404D01*
Y197058D01*
X98231D01*
Y197000D01*
X98000D01*
Y196942D01*
X97885D01*
Y196885D01*
X97596D01*
Y196827D01*
X97365D01*
Y196769D01*
X97077D01*
Y196712D01*
X96673D01*
Y196654D01*
X96269D01*
Y196596D01*
X95058D01*
Y196654D01*
X94654D01*
Y196712D01*
X94308D01*
Y196769D01*
X94019D01*
Y196827D01*
X93846D01*
Y196885D01*
X93558D01*
Y196942D01*
X93442D01*
Y197000D01*
X93269D01*
Y197058D01*
X93096D01*
Y197115D01*
X93039D01*
Y197173D01*
X92865D01*
Y197231D01*
X92750D01*
Y197288D01*
X92635D01*
Y197346D01*
X92519D01*
Y197404D01*
X92462D01*
Y197462D01*
X92346D01*
Y197519D01*
X92289D01*
Y197577D01*
X92173D01*
Y197635D01*
X92115D01*
Y197692D01*
X92000D01*
Y197750D01*
X91942D01*
Y197808D01*
X91885D01*
Y197865D01*
X91827D01*
Y197923D01*
X91769D01*
Y197981D01*
X91654D01*
Y198039D01*
X91596D01*
Y198096D01*
X91538D01*
Y198211D01*
X91481D01*
Y198269D01*
X91423D01*
Y198327D01*
X91365D01*
Y198385D01*
X91308D01*
Y198442D01*
X91250D01*
Y198500D01*
X91192D01*
Y198558D01*
X91135D01*
Y198673D01*
X91077D01*
Y198789D01*
X91019D01*
Y198846D01*
X90962D01*
Y198962D01*
X90904D01*
Y199077D01*
X90846D01*
Y199192D01*
X90788D01*
Y199308D01*
X90731D01*
Y199481D01*
X90673D01*
Y199596D01*
X90615D01*
Y199769D01*
X90558D01*
Y200000D01*
X90500D01*
Y200173D01*
X90442D01*
Y200519D01*
X90385D01*
Y200865D01*
X90327D01*
Y201961D01*
X90385D01*
Y202365D01*
X90442D01*
Y202769D01*
X90500D01*
Y202885D01*
X90558D01*
Y203173D01*
X90615D01*
Y203346D01*
X90673D01*
Y203461D01*
X90731D01*
Y203692D01*
X90788D01*
Y203750D01*
X90846D01*
Y203981D01*
X90904D01*
Y204039D01*
X90962D01*
Y204212D01*
X91019D01*
Y204327D01*
X91077D01*
Y204385D01*
X91135D01*
Y204558D01*
X91192D01*
Y204615D01*
X91250D01*
Y204731D01*
X91308D01*
Y204788D01*
X91365D01*
Y204904D01*
X91423D01*
Y205019D01*
X91481D01*
Y205077D01*
X91538D01*
Y205192D01*
X91596D01*
Y205250D01*
X91654D01*
Y205308D01*
X91712D01*
Y205423D01*
X91769D01*
Y205481D01*
X91827D01*
Y205596D01*
X91942D01*
Y205712D01*
X92000D01*
Y205769D01*
X92058D01*
Y205827D01*
X92115D01*
Y205885D01*
X92173D01*
Y205942D01*
X92231D01*
Y206000D01*
X92289D01*
Y206058D01*
X92346D01*
Y206115D01*
X92404D01*
Y206173D01*
X92462D01*
Y206231D01*
X92519D01*
Y206289D01*
X92577D01*
Y206346D01*
X92635D01*
Y206404D01*
X92692D01*
Y206462D01*
X92750D01*
Y206519D01*
X92808D01*
Y206577D01*
X92865D01*
Y206635D01*
X92923D01*
Y206692D01*
X93039D01*
Y206750D01*
X93096D01*
Y206808D01*
X93154D01*
Y206865D01*
X93211D01*
Y206923D01*
X93269D01*
Y206981D01*
X93385D01*
Y207038D01*
X93442D01*
Y207096D01*
X93558D01*
Y207154D01*
X93615D01*
Y207211D01*
X93673D01*
Y207269D01*
X93788D01*
Y207327D01*
X93904D01*
Y207385D01*
X94019D01*
Y207442D01*
X94077D01*
Y207500D01*
X94135D01*
Y207558D01*
X94192D01*
Y207673D01*
X94135D01*
Y207731D01*
X94077D01*
Y207789D01*
X94019D01*
Y207846D01*
X93904D01*
Y207904D01*
X93846D01*
Y207962D01*
X93788D01*
Y208019D01*
X93731D01*
Y208077D01*
X93673D01*
Y208135D01*
X93615D01*
Y208192D01*
X93500D01*
Y208250D01*
X93442D01*
Y208308D01*
X93327D01*
Y208365D01*
X93269D01*
Y208423D01*
X93154D01*
Y208481D01*
X93096D01*
Y208538D01*
X92981D01*
Y208596D01*
X92923D01*
Y208654D01*
X92750D01*
Y208711D01*
X92692D01*
Y208769D01*
X92577D01*
Y208827D01*
X92462D01*
Y208885D01*
X92346D01*
Y208942D01*
X92231D01*
Y209000D01*
X92115D01*
Y209058D01*
X91942D01*
Y209115D01*
X91885D01*
Y209173D01*
X91712D01*
Y209231D01*
X91538D01*
Y209289D01*
X91423D01*
Y209346D01*
X91250D01*
Y209404D01*
X91135D01*
Y209462D01*
X90904D01*
Y209519D01*
X90731D01*
Y209577D01*
X90558D01*
Y209635D01*
X90327D01*
Y209692D01*
X90212D01*
Y209750D01*
X89923D01*
Y209808D01*
X89750D01*
Y209865D01*
X88365D01*
Y209808D01*
X88019D01*
Y209750D01*
X87442D01*
Y209692D01*
X87212D01*
Y209635D01*
X86808D01*
Y209577D01*
X86519D01*
Y209519D01*
X86288D01*
Y209462D01*
X85885D01*
Y209404D01*
X85711D01*
Y209346D01*
X85365D01*
Y209289D01*
X85135D01*
Y209231D01*
X84904D01*
Y209173D01*
X84615D01*
Y209115D01*
X84442D01*
Y209058D01*
X84154D01*
Y209000D01*
X83981D01*
Y208942D01*
X83692D01*
Y208885D01*
X83462D01*
Y208827D01*
X83288D01*
Y208769D01*
X83000D01*
Y208711D01*
X82827D01*
Y208654D01*
X82538D01*
Y208596D01*
X82365D01*
Y208538D01*
X82192D01*
Y208481D01*
X81961D01*
Y208423D01*
X81789D01*
Y208365D01*
X81500D01*
Y208308D01*
X81385D01*
Y208250D01*
X81096D01*
Y208192D01*
X80923D01*
Y208135D01*
X80750D01*
Y208077D01*
X80519D01*
Y208019D01*
X80346D01*
Y207962D01*
X80115D01*
Y207904D01*
X79942D01*
Y207846D01*
X79769D01*
Y207789D01*
X79538D01*
Y207731D01*
X79481D01*
Y207673D01*
X79423D01*
Y207615D01*
X79365D01*
Y207500D01*
X79308D01*
Y207385D01*
X79250D01*
Y207327D01*
X79192D01*
Y207211D01*
X79135D01*
Y207096D01*
X79077D01*
Y206981D01*
X79019D01*
Y206923D01*
X78962D01*
Y206808D01*
X78904D01*
Y206692D01*
X78846D01*
Y206635D01*
X78788D01*
Y206519D01*
X78731D01*
Y206462D01*
X78673D01*
Y206289D01*
X78615D01*
Y206231D01*
X78558D01*
Y206115D01*
X78500D01*
Y206000D01*
X78442D01*
Y205942D01*
X78385D01*
Y205827D01*
X78327D01*
Y205769D01*
X78269D01*
Y205596D01*
X78212D01*
Y205539D01*
X78154D01*
Y205423D01*
X78096D01*
Y205308D01*
X78039D01*
Y205250D01*
X77981D01*
Y205135D01*
X77923D01*
Y205019D01*
X77865D01*
Y204904D01*
X77808D01*
Y204846D01*
X77750D01*
Y204731D01*
X77692D01*
Y204615D01*
X77635D01*
Y204558D01*
X77577D01*
Y204442D01*
X77519D01*
Y204327D01*
X77462D01*
Y204212D01*
X77404D01*
Y204096D01*
X77346D01*
Y204039D01*
X77288D01*
Y203923D01*
X77231D01*
Y203865D01*
X77173D01*
Y203750D01*
X77115D01*
Y203635D01*
X77058D01*
Y203519D01*
X77000D01*
Y203404D01*
X76942D01*
Y203346D01*
X76885D01*
Y203231D01*
X76827D01*
Y203115D01*
X76769D01*
Y203000D01*
X76712D01*
Y202885D01*
X76654D01*
Y202827D01*
X76596D01*
Y202712D01*
X76539D01*
Y202596D01*
X76481D01*
Y202481D01*
X76423D01*
Y202365D01*
X76365D01*
Y202308D01*
X76308D01*
Y202192D01*
X76250D01*
Y202077D01*
X76192D01*
Y201961D01*
X76135D01*
Y201904D01*
X76077D01*
Y201789D01*
X76019D01*
Y201673D01*
X75961D01*
Y201558D01*
X75904D01*
Y201442D01*
X75846D01*
Y201327D01*
X75788D01*
Y201211D01*
X75731D01*
Y201096D01*
X75673D01*
Y201038D01*
X75615D01*
Y200865D01*
X75558D01*
Y200808D01*
X75500D01*
Y200692D01*
X75442D01*
Y200635D01*
X75385D01*
Y200519D01*
X75327D01*
Y200462D01*
X75269D01*
Y200404D01*
X75212D01*
Y200289D01*
X75154D01*
Y200231D01*
X75096D01*
Y200173D01*
X75038D01*
Y200115D01*
X74981D01*
Y200058D01*
X74923D01*
Y199942D01*
X74808D01*
Y199885D01*
X74750D01*
Y199827D01*
X74692D01*
Y199769D01*
X74635D01*
Y199711D01*
X74577D01*
Y199654D01*
X74461D01*
Y199596D01*
X74404D01*
Y199538D01*
X74289D01*
Y199481D01*
X74231D01*
Y199423D01*
X74000D01*
Y199481D01*
X74058D01*
Y199596D01*
X74115D01*
Y199827D01*
X74173D01*
Y199942D01*
X74231D01*
Y200173D01*
X74289D01*
Y200289D01*
X74346D01*
Y200462D01*
X74404D01*
Y200692D01*
X74461D01*
Y200750D01*
X74519D01*
Y200981D01*
X74577D01*
Y201096D01*
X74635D01*
Y201327D01*
X74692D01*
Y201442D01*
X74750D01*
Y201558D01*
X74808D01*
Y201789D01*
X74865D01*
Y201846D01*
X74923D01*
Y202077D01*
X74981D01*
Y202192D01*
X75038D01*
Y202308D01*
X75096D01*
Y202481D01*
X75154D01*
Y202596D01*
X75212D01*
Y202769D01*
X75269D01*
Y202885D01*
X75327D01*
Y203058D01*
X75385D01*
Y203173D01*
X75442D01*
Y203288D01*
X75500D01*
Y203461D01*
X75558D01*
Y203519D01*
X75615D01*
Y203692D01*
X75673D01*
Y203808D01*
X75731D01*
Y203923D01*
X75788D01*
Y204096D01*
X75846D01*
Y204154D01*
X75904D01*
Y204327D01*
X75961D01*
Y204442D01*
X76019D01*
Y204558D01*
X76077D01*
Y204673D01*
X76135D01*
Y204788D01*
X76192D01*
Y204904D01*
X76250D01*
Y205019D01*
X76308D01*
Y205135D01*
X76365D01*
Y205250D01*
X76423D01*
Y205365D01*
X76481D01*
Y205481D01*
X76539D01*
Y205539D01*
X76596D01*
Y205712D01*
X76654D01*
Y205769D01*
X76712D01*
Y205885D01*
X76769D01*
Y206000D01*
X76827D01*
Y206058D01*
X76885D01*
Y206231D01*
X76942D01*
Y206289D01*
X77000D01*
Y206404D01*
X77058D01*
Y206519D01*
X77115D01*
Y206577D01*
X77173D01*
Y206692D01*
X77231D01*
Y206750D01*
X77288D01*
Y206865D01*
X77346D01*
Y206981D01*
X77404D01*
Y207038D01*
X77462D01*
Y207154D01*
X77519D01*
Y207211D01*
X77577D01*
Y207327D01*
X77635D01*
Y207385D01*
X77692D01*
Y207500D01*
X77750D01*
Y207558D01*
X77808D01*
Y207673D01*
X77865D01*
Y207789D01*
X77923D01*
Y207846D01*
X77981D01*
Y207904D01*
X78039D01*
Y207962D01*
X78096D01*
Y208077D01*
X78154D01*
Y208135D01*
X78212D01*
Y208192D01*
X78269D01*
Y208308D01*
X78327D01*
Y208365D01*
X78385D01*
Y208481D01*
X78442D01*
Y208538D01*
X78500D01*
Y208596D01*
X78558D01*
Y208654D01*
X78615D01*
Y208711D01*
X78673D01*
Y208769D01*
X78731D01*
Y208827D01*
X78788D01*
Y208942D01*
X78846D01*
Y209000D01*
X78904D01*
Y209058D01*
X78962D01*
Y209115D01*
X79019D01*
Y209173D01*
X79077D01*
Y209231D01*
X79135D01*
Y209289D01*
X79192D01*
Y209346D01*
X79250D01*
Y209404D01*
X79308D01*
Y209462D01*
X79481D01*
Y209519D01*
X79654D01*
Y209577D01*
X79827D01*
Y209635D01*
X80115D01*
Y209692D01*
X80231D01*
Y209750D01*
X80577D01*
Y209808D01*
X80750D01*
Y209865D01*
X80981D01*
Y209923D01*
X81212D01*
Y209981D01*
X81385D01*
Y210039D01*
X81673D01*
Y210096D01*
X81846D01*
Y210154D01*
X82192D01*
Y210212D01*
X82365D01*
Y210269D01*
X82596D01*
Y210327D01*
X82885D01*
Y210385D01*
X83058D01*
Y210442D01*
X83404D01*
Y210500D01*
X83635D01*
Y210558D01*
X83923D01*
Y210615D01*
X84212D01*
Y210673D01*
X84385D01*
Y210731D01*
X84789D01*
Y210788D01*
X84962D01*
Y210846D01*
X85365D01*
Y210904D01*
X85596D01*
Y210962D01*
X85885D01*
Y211019D01*
X86288D01*
Y211077D01*
X86577D01*
Y211135D01*
X87038D01*
Y211192D01*
X87327D01*
Y211250D01*
X87846D01*
Y211308D01*
X88365D01*
Y211365D01*
X88885D01*
Y211423D01*
X90327D01*
Y211365D01*
X90615D01*
Y211308D01*
X90904D01*
Y211250D01*
X91135D01*
Y211192D01*
X91250D01*
Y211135D01*
X91481D01*
Y211077D01*
X91596D01*
Y211019D01*
X91769D01*
Y210962D01*
X91885D01*
Y210904D01*
X92000D01*
Y210846D01*
X92173D01*
Y210788D01*
X92231D01*
Y210731D01*
X92404D01*
Y210673D01*
X92462D01*
Y210615D01*
X92577D01*
Y210558D01*
X92692D01*
Y210500D01*
X92808D01*
Y210442D01*
X92923D01*
Y210385D01*
X92981D01*
Y210327D01*
X93154D01*
Y210269D01*
X93211D01*
Y210212D01*
X93327D01*
Y210154D01*
X93442D01*
Y210096D01*
X93500D01*
Y210039D01*
X93615D01*
Y209981D01*
X93673D01*
Y209923D01*
X93788D01*
Y209865D01*
X93904D01*
Y209808D01*
X93961D01*
Y209750D01*
X94077D01*
Y209692D01*
X94135D01*
Y209635D01*
X94250D01*
Y209577D01*
X94308D01*
Y209519D01*
X94423D01*
Y209462D01*
X94538D01*
Y209404D01*
X94596D01*
Y209346D01*
X94712D01*
Y209289D01*
X94769D01*
Y209231D01*
X94827D01*
Y209173D01*
X94942D01*
Y209115D01*
X95000D01*
Y209058D01*
X95115D01*
Y209000D01*
X95173D01*
Y208942D01*
X95231D01*
Y208885D01*
X95346D01*
Y208827D01*
X95404D01*
Y208769D01*
X95519D01*
Y208711D01*
X95577D01*
Y208654D01*
X95635D01*
Y208596D01*
X95750D01*
Y208538D01*
X95808D01*
Y208481D01*
X95923D01*
Y208423D01*
X95981D01*
Y208365D01*
X96442D01*
Y208423D01*
X96615D01*
Y208481D01*
X96846D01*
Y208538D01*
X97135D01*
Y208596D01*
X97365D01*
Y208654D01*
X99269D01*
Y208596D01*
X99558D01*
Y208538D01*
X99789D01*
Y208481D01*
X100077D01*
Y208423D01*
X100192D01*
Y208596D01*
X100135D01*
Y208827D01*
X100077D01*
Y209000D01*
X100019D01*
Y209058D01*
X99962D01*
Y209173D01*
X99904D01*
Y209231D01*
X99846D01*
Y209289D01*
X99789D01*
Y209346D01*
X99731D01*
Y209404D01*
X99673D01*
Y209519D01*
X99615D01*
Y209577D01*
X99558D01*
Y209635D01*
X99500D01*
Y209692D01*
X99442D01*
Y209808D01*
X99385D01*
Y209865D01*
X99327D01*
Y209923D01*
X99269D01*
Y209981D01*
X99212D01*
Y210039D01*
X99154D01*
Y210154D01*
X99096D01*
Y210212D01*
X99038D01*
Y210269D01*
X98981D01*
Y210327D01*
X98923D01*
Y210385D01*
X98865D01*
Y210500D01*
X98808D01*
Y210558D01*
X98750D01*
Y210615D01*
X98692D01*
Y210731D01*
X98462D01*
Y210788D01*
X98288D01*
Y210846D01*
X97942D01*
Y210904D01*
X97711D01*
Y210962D01*
X97481D01*
Y211019D01*
X97192D01*
Y211077D01*
X97019D01*
Y211135D01*
X96673D01*
Y211192D01*
X96500D01*
Y211250D01*
X96212D01*
Y211308D01*
X95981D01*
Y211365D01*
X95750D01*
Y211423D01*
X95462D01*
Y211481D01*
X95058D01*
Y211423D01*
X94885D01*
Y211365D01*
X94769D01*
Y211308D01*
X94654D01*
Y211250D01*
X94596D01*
Y211192D01*
X94481D01*
Y211135D01*
X94423D01*
Y211077D01*
X94365D01*
Y211019D01*
X94250D01*
Y210962D01*
X94192D01*
Y210904D01*
X94135D01*
Y210846D01*
X94077D01*
Y210788D01*
X94019D01*
Y210731D01*
X93961D01*
Y210673D01*
X93904D01*
Y210731D01*
X93846D01*
Y210788D01*
X93904D01*
Y211135D01*
X93961D01*
Y211308D01*
X94019D01*
Y211596D01*
X94077D01*
Y211769D01*
X94135D01*
Y211942D01*
X94192D01*
Y212115D01*
X94250D01*
Y212173D01*
X94308D01*
Y212346D01*
X94365D01*
Y212404D01*
X94423D01*
Y212519D01*
X94481D01*
Y212635D01*
X94538D01*
Y212692D01*
X94596D01*
Y212750D01*
X94654D01*
Y212808D01*
X94769D01*
Y212865D01*
X94827D01*
Y212923D01*
X95692D01*
Y212865D01*
X95865D01*
Y212808D01*
X96212D01*
Y212750D01*
X96385D01*
Y212692D01*
X96615D01*
Y212635D01*
X96846D01*
Y212577D01*
X96962D01*
Y212519D01*
X97250D01*
Y212462D01*
X97365D01*
Y212404D01*
X97596D01*
Y212346D01*
X97769D01*
Y212288D01*
X97942D01*
Y212231D01*
X98173D01*
Y212173D01*
X98288D01*
Y212115D01*
X98635D01*
Y212058D01*
X98808D01*
Y212000D01*
X99154D01*
Y211942D01*
X99385D01*
Y211885D01*
X99500D01*
Y211827D01*
X99615D01*
Y211769D01*
X99673D01*
Y211712D01*
X99731D01*
Y211654D01*
X99789D01*
Y211596D01*
X99846D01*
Y211539D01*
X99904D01*
Y211481D01*
X99962D01*
Y211423D01*
X100019D01*
Y211365D01*
X100077D01*
Y211308D01*
X100135D01*
Y211250D01*
X100192D01*
Y211192D01*
X100250D01*
Y211135D01*
X100308D01*
Y211077D01*
X100365D01*
Y211019D01*
X100423D01*
Y210904D01*
X100481D01*
Y210846D01*
X100539D01*
Y210788D01*
X100596D01*
Y210731D01*
X100654D01*
Y210673D01*
X100711D01*
Y210615D01*
X100769D01*
Y210558D01*
X100827D01*
Y210442D01*
X100885D01*
Y210385D01*
X100942D01*
Y210327D01*
X101000D01*
Y210269D01*
X101058D01*
Y210154D01*
X101115D01*
Y210096D01*
X101173D01*
Y210039D01*
X101231D01*
Y209923D01*
X101288D01*
Y209865D01*
X101346D01*
Y209808D01*
X101404D01*
Y209750D01*
X101461D01*
Y209692D01*
X101519D01*
Y209577D01*
X101577D01*
Y209519D01*
X101635D01*
Y209404D01*
X101692D01*
Y209346D01*
X101750D01*
Y209289D01*
X101808D01*
Y209173D01*
X101865D01*
Y209115D01*
X101923D01*
Y209058D01*
X101981D01*
Y209000D01*
X102038D01*
Y208885D01*
X102096D01*
Y208827D01*
X102154D01*
Y208711D01*
X102212D01*
Y208654D01*
X102269D01*
Y208596D01*
X102327D01*
Y208481D01*
X102385D01*
Y208423D01*
X102442D01*
Y208365D01*
X102500D01*
Y208250D01*
X102558D01*
Y208192D01*
X102615D01*
Y208077D01*
X102673D01*
Y208019D01*
X102731D01*
Y207904D01*
X102788D01*
Y207846D01*
X102846D01*
Y207789D01*
X102904D01*
Y207673D01*
X102962D01*
Y207615D01*
X103019D01*
Y207500D01*
X103077D01*
Y207442D01*
X103135D01*
Y207385D01*
X103192D01*
Y207269D01*
X103250D01*
Y207211D01*
X103308D01*
Y207096D01*
X103365D01*
Y207038D01*
X103423D01*
Y206923D01*
X103481D01*
Y206865D01*
X103539D01*
Y206808D01*
X103596D01*
Y206692D01*
X103654D01*
Y206635D01*
X103712D01*
Y206577D01*
X104000D01*
Y206635D01*
X104231D01*
Y206692D01*
X104692D01*
Y206750D01*
X104981D01*
Y206808D01*
X105154D01*
Y206865D01*
X105211D01*
Y207038D01*
X105154D01*
Y207269D01*
X105096D01*
Y207673D01*
X105038D01*
Y207904D01*
X104981D01*
Y208365D01*
X104923D01*
Y208596D01*
X104865D01*
Y208885D01*
X104808D01*
Y209289D01*
X104750D01*
Y209519D01*
X104692D01*
Y209981D01*
X104635D01*
Y210212D01*
X104577D01*
Y210558D01*
X104519D01*
Y210904D01*
X104461D01*
Y211135D01*
X104404D01*
Y211539D01*
X104346D01*
Y211769D01*
X104289D01*
Y212173D01*
X104231D01*
Y212462D01*
X104173D01*
Y212692D01*
X104115D01*
Y213096D01*
X104058D01*
Y213269D01*
X104000D01*
Y213673D01*
X103942D01*
Y213904D01*
X103885D01*
Y214135D01*
X103827D01*
Y214423D01*
X103769D01*
Y215231D01*
X103827D01*
Y215519D01*
X103885D01*
Y215692D01*
X103942D01*
Y215750D01*
X104000D01*
Y215923D01*
X104058D01*
Y216038D01*
X104115D01*
Y216154D01*
X104173D01*
Y216212D01*
X104231D01*
Y216269D01*
X104289D01*
Y216385D01*
X104404D01*
Y216500D01*
X104461D01*
Y216558D01*
X104519D01*
Y216615D01*
X104577D01*
Y216673D01*
X104635D01*
Y216731D01*
X104692D01*
Y216789D01*
X104750D01*
Y216846D01*
X104808D01*
Y216904D01*
X104865D01*
Y216961D01*
X104981D01*
Y217077D01*
X105096D01*
Y217192D01*
X105211D01*
Y217250D01*
X105269D01*
Y217308D01*
X105327D01*
Y217365D01*
X105385D01*
Y217423D01*
X105442D01*
Y217481D01*
X105500D01*
Y217539D01*
X105558D01*
Y217596D01*
X105615D01*
Y217654D01*
X105673D01*
Y217712D01*
X105731D01*
Y217769D01*
X105788D01*
Y217827D01*
X105846D01*
Y217885D01*
X105904D01*
Y217942D01*
X105962D01*
Y218000D01*
X106019D01*
Y218058D01*
X106135D01*
Y218115D01*
X106192D01*
Y218173D01*
X106250D01*
Y218231D01*
X106308D01*
Y218288D01*
X106365D01*
Y218346D01*
X106423D01*
Y218404D01*
X106481D01*
Y218461D01*
X106538D01*
Y218519D01*
X106596D01*
Y218577D01*
X106654D01*
Y218635D01*
X106769D01*
Y218692D01*
X106827D01*
Y218750D01*
X106885D01*
Y218808D01*
X106942D01*
Y218865D01*
X107000D01*
Y218923D01*
X107058D01*
Y218981D01*
X107115D01*
Y219039D01*
X107173D01*
Y219096D01*
X107231D01*
Y219154D01*
X107346D01*
Y219212D01*
X107404D01*
Y219269D01*
X107462D01*
Y219327D01*
X107519D01*
Y219385D01*
X107577D01*
Y219442D01*
X107692D01*
Y219500D01*
X107750D01*
Y219558D01*
X107808D01*
Y219615D01*
X107865D01*
Y219673D01*
X107923D01*
Y219731D01*
X107981D01*
Y219788D01*
X108039D01*
Y219846D01*
X108154D01*
Y219904D01*
X108211D01*
Y219961D01*
X108269D01*
Y220019D01*
X108385D01*
Y220077D01*
X108442D01*
Y220135D01*
X108500D01*
Y220192D01*
X108558D01*
Y220250D01*
X108673D01*
Y220308D01*
X108731D01*
Y220365D01*
X108788D01*
Y220423D01*
X108904D01*
Y220481D01*
X108962D01*
Y220539D01*
X109077D01*
Y220596D01*
X109135D01*
Y220654D01*
X109250D01*
Y220711D01*
X109365D01*
Y220769D01*
X109423D01*
Y220827D01*
X110000D01*
Y220769D01*
X110115D01*
Y220711D01*
X110288D01*
Y220654D01*
X110462D01*
Y220596D01*
X110577D01*
Y220539D01*
X110692D01*
Y220481D01*
X110808D01*
Y220423D01*
X110981D01*
Y220365D01*
X111039D01*
Y220308D01*
X111154D01*
Y220250D01*
X111269D01*
Y220192D01*
X111385D01*
Y220135D01*
X111500D01*
Y220077D01*
X111615D01*
Y220019D01*
X111731D01*
Y219961D01*
X111846D01*
Y219904D01*
X111904D01*
Y219846D01*
X112019D01*
Y219788D01*
X112135D01*
Y219731D01*
X112250D01*
Y219673D01*
X112308D01*
Y219615D01*
X112423D01*
Y219558D01*
X112538D01*
Y219500D01*
X112596D01*
Y219442D01*
X112711D01*
Y219385D01*
X112827D01*
Y219327D01*
X112942D01*
Y219269D01*
X113000D01*
Y219212D01*
X113115D01*
Y219154D01*
X113231D01*
Y219096D01*
X113288D01*
Y219039D01*
X113404D01*
Y218981D01*
X113462D01*
Y218923D01*
X113577D01*
Y218865D01*
X113692D01*
Y218635D01*
X113635D01*
Y218577D01*
X113577D01*
Y218461D01*
X113519D01*
Y218346D01*
X113462D01*
Y218288D01*
X113404D01*
Y218173D01*
X113346D01*
Y218115D01*
X113288D01*
Y218058D01*
X113115D01*
Y218115D01*
X113058D01*
Y218173D01*
X112885D01*
Y218231D01*
X112769D01*
Y218288D01*
X112711D01*
Y218346D01*
X112538D01*
Y218404D01*
X112481D01*
Y218461D01*
X112308D01*
Y218519D01*
X112192D01*
Y218577D01*
X112077D01*
Y218635D01*
X111961D01*
Y218692D01*
X111904D01*
Y218750D01*
X111731D01*
Y218808D01*
X111615D01*
Y218865D01*
X111500D01*
Y218923D01*
X111385D01*
Y218981D01*
X111269D01*
Y219039D01*
X111096D01*
Y219096D01*
X111039D01*
Y219154D01*
X110865D01*
Y219212D01*
X110808D01*
Y219269D01*
X110692D01*
Y219327D01*
X110519D01*
Y219385D01*
X110462D01*
Y219442D01*
X110288D01*
Y219500D01*
X110231D01*
Y219558D01*
X110058D01*
Y219615D01*
X109942D01*
Y219673D01*
X109827D01*
Y219615D01*
X109769D01*
Y219558D01*
X109654D01*
Y219500D01*
X109596D01*
Y219442D01*
X109538D01*
Y219385D01*
X109481D01*
Y219327D01*
X109423D01*
Y219269D01*
X109365D01*
Y219212D01*
X109308D01*
Y219154D01*
X109250D01*
Y219096D01*
X109192D01*
Y219039D01*
X109077D01*
Y218981D01*
X109019D01*
Y218923D01*
X108962D01*
Y218865D01*
X108904D01*
Y218808D01*
X108846D01*
Y218750D01*
X108788D01*
Y218692D01*
X108731D01*
Y218635D01*
X108673D01*
Y218577D01*
X108615D01*
Y218519D01*
X108558D01*
Y218461D01*
X108442D01*
Y218404D01*
X108385D01*
Y218346D01*
X108327D01*
Y218288D01*
X108269D01*
Y218231D01*
X108211D01*
Y218173D01*
X108154D01*
Y218115D01*
X108096D01*
Y218058D01*
X108039D01*
Y218000D01*
X107981D01*
Y217942D01*
X107923D01*
Y217885D01*
X107865D01*
Y217827D01*
X107750D01*
Y217769D01*
X107692D01*
Y217712D01*
X107635D01*
Y217654D01*
X107577D01*
Y217596D01*
X107519D01*
Y217539D01*
X107462D01*
Y217481D01*
X107404D01*
Y217423D01*
X107346D01*
Y217365D01*
X107231D01*
Y217308D01*
X107173D01*
Y217250D01*
X107115D01*
Y217192D01*
X107058D01*
Y217135D01*
X107000D01*
Y217077D01*
X106942D01*
Y217019D01*
X106885D01*
Y216961D01*
X106827D01*
Y216904D01*
X106769D01*
Y216846D01*
X106712D01*
Y216789D01*
X106596D01*
Y216673D01*
X106481D01*
Y216615D01*
X106423D01*
Y216558D01*
X106365D01*
Y216500D01*
X106308D01*
Y216442D01*
X106250D01*
Y216385D01*
X106192D01*
Y216327D01*
X106135D01*
Y216269D01*
X106019D01*
Y216212D01*
X105962D01*
Y216154D01*
X105904D01*
Y216096D01*
X105846D01*
Y216038D01*
X105788D01*
Y215981D01*
X105731D01*
Y215923D01*
X105673D01*
Y215865D01*
X105615D01*
Y215808D01*
X105558D01*
Y215750D01*
X105500D01*
Y214942D01*
X105558D01*
Y214481D01*
X105615D01*
Y213962D01*
X105673D01*
Y213269D01*
X105731D01*
Y212865D01*
X105788D01*
Y212115D01*
X105846D01*
Y211712D01*
X105904D01*
Y211077D01*
X105962D01*
Y210500D01*
X106019D01*
Y210096D01*
X106077D01*
Y209289D01*
X106135D01*
Y208942D01*
X106192D01*
Y208192D01*
X106250D01*
Y207731D01*
X106308D01*
Y207211D01*
X106365D01*
Y206865D01*
X106423D01*
Y206808D01*
X106942D01*
Y206750D01*
X107462D01*
Y206808D01*
X107519D01*
Y206865D01*
X107577D01*
Y207038D01*
X107635D01*
Y207096D01*
X107692D01*
Y207211D01*
X107750D01*
Y207327D01*
X107808D01*
Y207385D01*
X107865D01*
Y207500D01*
X107923D01*
Y207615D01*
X107981D01*
Y207731D01*
X108039D01*
Y207789D01*
X108096D01*
Y207904D01*
X108154D01*
Y208019D01*
X108211D01*
Y208077D01*
X108269D01*
Y208250D01*
X108327D01*
Y208308D01*
X108385D01*
Y208423D01*
X108442D01*
Y208538D01*
X108500D01*
Y208596D01*
X108558D01*
Y208711D01*
X108615D01*
Y208827D01*
X108673D01*
Y208885D01*
X108731D01*
Y209000D01*
X108788D01*
Y209115D01*
X108846D01*
Y209231D01*
X108904D01*
Y209289D01*
X108962D01*
Y209404D01*
X109019D01*
Y209519D01*
X109077D01*
Y209577D01*
X109135D01*
Y209692D01*
X109192D01*
Y209808D01*
X109250D01*
Y209923D01*
X109308D01*
Y209981D01*
X109365D01*
Y210096D01*
X109423D01*
Y210212D01*
X109481D01*
Y210269D01*
X109538D01*
Y210442D01*
X109596D01*
Y210500D01*
X109654D01*
Y210615D01*
X109712D01*
Y210673D01*
X109769D01*
Y210788D01*
X109827D01*
Y210904D01*
X109885D01*
Y210962D01*
X109942D01*
Y211135D01*
X110000D01*
Y211192D01*
X110058D01*
Y211308D01*
X110115D01*
Y211423D01*
X110173D01*
Y211481D01*
X110231D01*
Y211596D01*
X110288D01*
Y211654D01*
X110346D01*
Y211827D01*
X110404D01*
Y211885D01*
X110462D01*
Y212000D01*
X110519D01*
Y212115D01*
X110577D01*
Y212173D01*
X110635D01*
Y212288D01*
X110692D01*
Y212404D01*
X110750D01*
Y212519D01*
X110808D01*
Y212577D01*
X110865D01*
Y212692D01*
X110923D01*
Y212808D01*
X110981D01*
Y212865D01*
X111039D01*
Y212981D01*
X111096D01*
Y213096D01*
X111154D01*
Y213154D01*
X111212D01*
Y213269D01*
X111269D01*
Y213385D01*
X111327D01*
Y213500D01*
X111385D01*
Y213558D01*
X111442D01*
Y213673D01*
X111500D01*
Y213789D01*
X111558D01*
Y213846D01*
X111615D01*
Y214019D01*
X111673D01*
Y214077D01*
X111731D01*
Y214192D01*
X111789D01*
Y214250D01*
X111846D01*
Y214365D01*
X111904D01*
Y214481D01*
X111961D01*
Y214538D01*
X112019D01*
Y214654D01*
X112077D01*
Y214769D01*
X112135D01*
Y214885D01*
X112192D01*
Y214942D01*
X112250D01*
Y215058D01*
X112308D01*
Y215173D01*
X112365D01*
Y215231D01*
X112423D01*
Y215346D01*
X112481D01*
Y215462D01*
X112538D01*
Y215519D01*
X112596D01*
Y215635D01*
X112654D01*
Y215692D01*
X112711D01*
Y215865D01*
X112769D01*
Y215923D01*
X112827D01*
Y216038D01*
X112885D01*
Y216096D01*
X112942D01*
Y216212D01*
X113000D01*
Y216327D01*
X113058D01*
Y216385D01*
X113115D01*
Y216500D01*
X113173D01*
Y216558D01*
X113231D01*
Y216673D01*
X113288D01*
Y216731D01*
X113346D01*
Y216789D01*
X113404D01*
Y216904D01*
X113462D01*
Y216961D01*
X113519D01*
Y217077D01*
X113577D01*
Y217135D01*
X113635D01*
Y217192D01*
X113692D01*
Y217308D01*
X113750D01*
Y217365D01*
X113808D01*
Y217423D01*
X113865D01*
Y217481D01*
X113923D01*
Y217596D01*
X113981D01*
Y217654D01*
X114038D01*
Y217712D01*
X114096D01*
Y217769D01*
X114154D01*
Y217827D01*
X114212D01*
Y217942D01*
X114269D01*
Y218000D01*
X114327D01*
Y218058D01*
X114385D01*
Y218115D01*
X114442D01*
Y218173D01*
X114500D01*
Y218288D01*
X114558D01*
Y218346D01*
X114615D01*
Y218404D01*
X114673D01*
Y218461D01*
X114731D01*
Y218519D01*
X114789D01*
Y218577D01*
X114846D01*
Y218635D01*
X114904D01*
Y218692D01*
X114962D01*
Y218750D01*
X115019D01*
Y218808D01*
X115077D01*
Y218865D01*
X115135D01*
Y218923D01*
X115192D01*
Y218981D01*
X115250D01*
Y219039D01*
X115308D01*
Y219096D01*
X115365D01*
Y219154D01*
X115423D01*
Y219212D01*
X115481D01*
Y219269D01*
X115539D01*
Y219327D01*
X115654D01*
Y219385D01*
X115712D01*
Y219442D01*
X115769D01*
Y219500D01*
X115827D01*
Y219558D01*
X115942D01*
Y219615D01*
X116000D01*
Y219673D01*
X116115D01*
Y219731D01*
X116288D01*
Y219788D01*
X116404D01*
Y219846D01*
X116808D01*
Y219904D01*
X117500D01*
Y219846D01*
X117962D01*
Y219788D01*
X118135D01*
Y219846D01*
X118365D01*
Y219904D01*
X118481D01*
Y219961D01*
X118596D01*
Y220019D01*
X118827D01*
Y220077D01*
X118885D01*
Y220135D01*
X119115D01*
Y220192D01*
X119231D01*
Y220250D01*
X119404D01*
Y220308D01*
X119577D01*
Y220365D01*
X119692D01*
Y220423D01*
X119923D01*
Y220481D01*
X119981D01*
Y220539D01*
X120211D01*
Y220596D01*
X120327D01*
Y220654D01*
X120500D01*
Y220711D01*
X120673D01*
Y220769D01*
X120788D01*
Y220827D01*
X121019D01*
Y220885D01*
X121135D01*
Y220942D01*
X121308D01*
Y221000D01*
X121481D01*
Y221058D01*
X121596D01*
Y221115D01*
X121827D01*
Y221173D01*
X121942D01*
Y221231D01*
X122173D01*
Y221289D01*
X122289D01*
Y221346D01*
X122462D01*
Y221404D01*
X122692D01*
Y221462D01*
X122808D01*
Y221519D01*
X123039D01*
Y221577D01*
X123154D01*
Y221635D01*
X123385D01*
Y221692D01*
X123500D01*
Y221750D01*
X123673D01*
Y221808D01*
X123904D01*
Y221865D01*
X124019D01*
Y221923D01*
X124308D01*
Y221981D01*
X124423D01*
Y222038D01*
X124596D01*
Y222096D01*
X124827D01*
Y222154D01*
X125000D01*
Y222211D01*
X125288D01*
Y222269D01*
X125404D01*
Y222327D01*
X125692D01*
Y222385D01*
X125865D01*
Y222442D01*
X126096D01*
Y222500D01*
X126385D01*
Y222558D01*
X126615D01*
Y222615D01*
X127019D01*
Y222673D01*
X127423D01*
Y222731D01*
X127769D01*
Y222673D01*
D02*
G37*
G36*
X33000Y208000D02*
X28000Y213000D01*
X33000Y218000D01*
Y208000D01*
D02*
G37*
G36*
Y180000D02*
X28000Y185000D01*
X33000Y190000D01*
Y180000D01*
D02*
G37*
G36*
X314349Y144041D02*
X314419Y144034D01*
X314488Y144013D01*
X314551Y143999D01*
X314592Y143986D01*
X314634Y143972D01*
X314655Y143965D01*
X314662Y143958D01*
X314731Y143923D01*
X314793Y143888D01*
X314849Y143854D01*
X314897Y143812D01*
X314939Y143784D01*
X314967Y143757D01*
X314988Y143736D01*
X314994Y143729D01*
X315050Y143666D01*
X315105Y143604D01*
X315182Y143472D01*
X315244Y143341D01*
X315279Y143223D01*
X315306Y143119D01*
X315313Y143070D01*
Y143035D01*
X315320Y143001D01*
Y142980D01*
Y142966D01*
Y142959D01*
Y142876D01*
X315306Y142800D01*
X315272Y142654D01*
X315223Y142522D01*
X315168Y142411D01*
X315105Y142321D01*
X315057Y142252D01*
X315022Y142210D01*
X315015Y142203D01*
X315008Y142197D01*
X314904Y142106D01*
X314800Y142037D01*
X314703Y141975D01*
X314606Y141933D01*
X314530Y141905D01*
X314461Y141884D01*
X314419Y141871D01*
X314405D01*
X314280Y141857D01*
X314162Y141864D01*
X314051Y141884D01*
X313954Y141905D01*
X313864Y141933D01*
X313802Y141954D01*
X313760Y141975D01*
X313753Y141981D01*
X313746D01*
X313635Y142044D01*
X313587Y142079D01*
X313545Y142106D01*
X313510Y142134D01*
X313483Y142162D01*
X313469Y142176D01*
X313462Y142183D01*
X313372Y142287D01*
X313309Y142377D01*
X313289Y142411D01*
X313268Y142439D01*
X313261Y142460D01*
X313254Y142467D01*
X313185Y142606D01*
X312207Y142592D01*
X311541D01*
X311500Y142585D01*
X311305D01*
X311257Y142578D01*
X311215Y142571D01*
X311181D01*
X311153Y142564D01*
X311139D01*
X311125Y142557D01*
X311056Y142536D01*
X310993Y142508D01*
X310959Y142495D01*
X310938Y142481D01*
X310924Y142474D01*
X310917D01*
X310834Y142432D01*
X310778Y142404D01*
X310751Y142377D01*
X310737Y142370D01*
X310723Y142356D01*
X310695Y142328D01*
X310654Y142287D01*
X310612Y142245D01*
X310577Y142210D01*
X310543Y142176D01*
X310515Y142148D01*
X310508Y142141D01*
X310432Y142058D01*
X310348Y141975D01*
X310272Y141891D01*
X310196Y141815D01*
X310133Y141753D01*
X310085Y141697D01*
X310050Y141663D01*
X310036Y141649D01*
X309835Y141434D01*
X309731Y141330D01*
X309641Y141233D01*
X309565Y141149D01*
X309503Y141080D01*
X309461Y141039D01*
X309454Y141032D01*
X309447Y141025D01*
X309336Y140907D01*
X309239Y140803D01*
X309149Y140712D01*
X309079Y140636D01*
X309024Y140574D01*
X308989Y140532D01*
X308962Y140505D01*
X308955Y140498D01*
X308504Y140033D01*
X319710D01*
Y140477D01*
Y140581D01*
Y140664D01*
Y140726D01*
Y140782D01*
Y140817D01*
Y140837D01*
Y140851D01*
Y140872D01*
X319717Y140893D01*
X319723Y140907D01*
X319737D01*
X319751Y140900D01*
X319779Y140886D01*
X319814Y140865D01*
X319855Y140844D01*
X319897Y140817D01*
X319932Y140796D01*
X319959Y140782D01*
X319966Y140775D01*
X320056Y140726D01*
X320146Y140671D01*
X320237Y140622D01*
X320320Y140574D01*
X320396Y140532D01*
X320452Y140498D01*
X320493Y140477D01*
X320507Y140470D01*
X320618Y140407D01*
X320729Y140345D01*
X320833Y140283D01*
X320930Y140227D01*
X321006Y140185D01*
X321062Y140144D01*
X321103Y140123D01*
X321117Y140116D01*
X321221Y140054D01*
X321311Y140005D01*
X321388Y139964D01*
X321450Y139929D01*
X321492Y139908D01*
X321526Y139887D01*
X321540Y139880D01*
X321547Y139874D01*
X321630Y139818D01*
X321700Y139776D01*
X321727Y139763D01*
X321748Y139749D01*
X321755Y139742D01*
X321762D01*
X321797Y139721D01*
X321818Y139707D01*
X321852Y139693D01*
X321873Y139679D01*
X321866Y139672D01*
X321838Y139652D01*
X321804Y139631D01*
X321755Y139603D01*
X321714Y139575D01*
X321672Y139548D01*
X321651Y139534D01*
X321637Y139527D01*
X321589Y139499D01*
X321533Y139464D01*
X321409Y139395D01*
X321270Y139312D01*
X321138Y139229D01*
X321013Y139152D01*
X320958Y139118D01*
X320909Y139090D01*
X320868Y139069D01*
X320840Y139048D01*
X320819Y139041D01*
X320812Y139035D01*
X319717Y138410D01*
Y138861D01*
X319710Y139305D01*
X311243D01*
X311486Y139055D01*
X311534Y139007D01*
X311590Y138937D01*
X311659Y138861D01*
X311728Y138792D01*
X311798Y138715D01*
X311853Y138660D01*
X311888Y138618D01*
X311902Y138611D01*
Y138604D01*
X312144Y138348D01*
X312262Y138230D01*
X312366Y138126D01*
X312449Y138029D01*
X312519Y137960D01*
X312547Y137932D01*
X312567Y137911D01*
X312574Y137904D01*
X312581Y137897D01*
X312706Y137766D01*
X312817Y137648D01*
X312921Y137537D01*
X313011Y137446D01*
X313094Y137363D01*
X313164Y137294D01*
X313219Y137232D01*
X313275Y137176D01*
X313316Y137135D01*
X313351Y137093D01*
X313386Y137065D01*
X313407Y137044D01*
X313434Y137017D01*
X313441Y137010D01*
X313566Y136919D01*
X313628Y136878D01*
X313684Y136850D01*
X313732Y136829D01*
X313774Y136809D01*
X313802Y136802D01*
X313809Y136795D01*
X313947Y136746D01*
X315875Y136732D01*
Y137467D01*
X318059D01*
Y135290D01*
X315875D01*
Y136011D01*
X314786D01*
X314689Y136018D01*
X314440D01*
X314377Y136025D01*
X314017D01*
X313961Y136032D01*
X313913Y136039D01*
X313878D01*
X313850Y136046D01*
X313829Y136053D01*
X313816D01*
X313635Y136101D01*
X313552Y136129D01*
X313483Y136164D01*
X313420Y136185D01*
X313379Y136205D01*
X313351Y136219D01*
X313337Y136226D01*
X313254Y136275D01*
X313178Y136316D01*
X313101Y136365D01*
X313039Y136406D01*
X312990Y136441D01*
X312949Y136469D01*
X312921Y136490D01*
X312914Y136497D01*
X312900Y136510D01*
X312886Y136524D01*
X312831Y136580D01*
X312762Y136642D01*
X312692Y136718D01*
X312616Y136788D01*
X312561Y136850D01*
X312512Y136899D01*
X312505Y136906D01*
X312498Y136913D01*
X312359Y137065D01*
X312207Y137218D01*
X312068Y137370D01*
X311936Y137509D01*
X311819Y137634D01*
X311770Y137682D01*
X311728Y137731D01*
X311694Y137766D01*
X311666Y137793D01*
X311652Y137807D01*
X311645Y137814D01*
X311472Y137994D01*
X311312Y138168D01*
X311167Y138320D01*
X311042Y138445D01*
X310938Y138556D01*
X310896Y138598D01*
X310862Y138632D01*
X310834Y138660D01*
X310813Y138688D01*
X310806Y138695D01*
X310799Y138702D01*
X310737Y138771D01*
X310674Y138826D01*
X310626Y138882D01*
X310584Y138924D01*
X310515Y139000D01*
X310466Y139048D01*
X310432Y139076D01*
X310411Y139097D01*
X310404Y139104D01*
X310335Y139145D01*
X310279Y139173D01*
X310231Y139194D01*
X310224Y139201D01*
X310217D01*
X310147Y139236D01*
X310085Y139256D01*
X310036Y139263D01*
X310030Y139270D01*
X310023D01*
X309981Y139277D01*
X309919Y139284D01*
X309856Y139291D01*
X309787Y139298D01*
X309350D01*
X309218Y139305D01*
X305800D01*
X305772Y139194D01*
X305737Y139090D01*
X305703Y138986D01*
X305654Y138896D01*
X305612Y138813D01*
X305578Y138743D01*
X305543Y138695D01*
X305522Y138660D01*
X305515Y138646D01*
X305446Y138556D01*
X305377Y138473D01*
X305314Y138397D01*
X305252Y138334D01*
X305196Y138286D01*
X305155Y138251D01*
X305120Y138223D01*
X305113Y138216D01*
X305023Y138154D01*
X304933Y138098D01*
X304836Y138050D01*
X304746Y138008D01*
X304565Y137939D01*
X304399Y137897D01*
X304323Y137877D01*
X304260Y137863D01*
X304198Y137856D01*
X304142Y137849D01*
X304101D01*
X304073Y137842D01*
X303934D01*
X303830Y137849D01*
X303629Y137890D01*
X303449Y137939D01*
X303290Y138001D01*
X303213Y138029D01*
X303151Y138064D01*
X303095Y138091D01*
X303054Y138112D01*
X303012Y138140D01*
X302984Y138154D01*
X302971Y138161D01*
X302964Y138168D01*
X302880Y138230D01*
X302797Y138299D01*
X302763Y138327D01*
X302742Y138355D01*
X302721Y138369D01*
X302714Y138376D01*
X302665Y138431D01*
X302617Y138480D01*
X302582Y138521D01*
X302554Y138556D01*
X302527Y138584D01*
X302513Y138604D01*
X302506Y138618D01*
X302499Y138625D01*
X302409Y138771D01*
X302339Y138917D01*
X302284Y139055D01*
X302242Y139187D01*
X302215Y139298D01*
X302208Y139347D01*
X302201Y139388D01*
X302194Y139423D01*
X302187Y139444D01*
Y139458D01*
Y139464D01*
X302180Y139638D01*
X302187Y139797D01*
X302201Y139950D01*
X302229Y140082D01*
X302256Y140192D01*
X302270Y140241D01*
X302277Y140276D01*
X302291Y140310D01*
X302298Y140331D01*
X302305Y140345D01*
Y140352D01*
X302381Y140505D01*
X302464Y140650D01*
X302547Y140775D01*
X302638Y140879D01*
X302714Y140962D01*
X302783Y141025D01*
X302825Y141066D01*
X302832Y141080D01*
X302839D01*
X302977Y141184D01*
X303123Y141267D01*
X303262Y141330D01*
X303386Y141385D01*
X303498Y141420D01*
X303546Y141434D01*
X303588Y141441D01*
X303622Y141454D01*
X303643D01*
X303657Y141461D01*
X303664D01*
X303726Y141468D01*
X303796Y141475D01*
X303858Y141482D01*
X304149D01*
X304233Y141475D01*
X304295Y141468D01*
X304350Y141461D01*
X304399Y141454D01*
X304427Y141448D01*
X304447Y141441D01*
X304454D01*
X304628Y141385D01*
X304787Y141316D01*
X304926Y141233D01*
X305051Y141156D01*
X305148Y141080D01*
X305189Y141045D01*
X305224Y141018D01*
X305252Y140997D01*
X305273Y140976D01*
X305280Y140969D01*
X305287Y140962D01*
X305411Y140823D01*
X305515Y140685D01*
X305599Y140546D01*
X305661Y140421D01*
X305709Y140310D01*
X305730Y140262D01*
X305744Y140220D01*
X305751Y140192D01*
X305758Y140165D01*
X305765Y140151D01*
Y140144D01*
X305793Y140033D01*
X306888D01*
X306944Y140040D01*
X307103D01*
X307152Y140047D01*
X307180D01*
X307284Y140061D01*
X307374Y140089D01*
X307408Y140095D01*
X307436Y140109D01*
X307450Y140116D01*
X307457D01*
X307492Y140130D01*
X307519Y140151D01*
X307540Y140158D01*
X307547Y140165D01*
X307582Y140185D01*
X307610Y140199D01*
X307630Y140213D01*
X307637D01*
X307651Y140220D01*
X307665Y140234D01*
X307714Y140283D01*
X307776Y140345D01*
X307845Y140407D01*
X307908Y140470D01*
X307963Y140525D01*
X307998Y140567D01*
X308012Y140574D01*
Y140581D01*
X308143Y140719D01*
X308289Y140872D01*
X308442Y141032D01*
X308587Y141184D01*
X308719Y141323D01*
X308774Y141378D01*
X308823Y141434D01*
X308865Y141475D01*
X308892Y141503D01*
X308913Y141524D01*
X308920Y141531D01*
X309038Y141663D01*
X309156Y141780D01*
X309253Y141891D01*
X309350Y141988D01*
X309440Y142086D01*
X309516Y142162D01*
X309586Y142238D01*
X309648Y142307D01*
X309704Y142363D01*
X309752Y142411D01*
X309787Y142453D01*
X309821Y142488D01*
X309849Y142508D01*
X309863Y142529D01*
X309877Y142543D01*
X309974Y142647D01*
X310057Y142724D01*
X310127Y142786D01*
X310175Y142834D01*
X310217Y142869D01*
X310238Y142890D01*
X310251Y142904D01*
X310258D01*
X310369Y142973D01*
X310480Y143035D01*
X310522Y143063D01*
X310557Y143084D01*
X310584Y143091D01*
X310591Y143098D01*
X310730Y143167D01*
X310792Y143195D01*
X310848Y143216D01*
X310889Y143230D01*
X310924Y143244D01*
X310945Y143251D01*
X310952D01*
X311104Y143299D01*
X313192Y143313D01*
X313254Y143445D01*
X313302Y143535D01*
X313358Y143604D01*
X313379Y143639D01*
X313400Y143660D01*
X313407Y143673D01*
X313413Y143680D01*
X313497Y143764D01*
X313566Y143826D01*
X313594Y143847D01*
X313615Y143861D01*
X313628Y143875D01*
X313635D01*
X313698Y143916D01*
X313760Y143944D01*
X313788Y143958D01*
X313809Y143965D01*
X313822Y143972D01*
X313829D01*
X313913Y144006D01*
X313982Y144027D01*
X314010Y144034D01*
X314030D01*
X314037Y144041D01*
X314044D01*
X314072Y144048D01*
X314266D01*
X314349Y144041D01*
D02*
G37*
D10*
X209500Y152000D02*
G03*
X209500Y152000I-500J0D01*
G01*
X209250Y22500D02*
G03*
X209250Y22500I-500J0D01*
G01*
X89500Y187000D02*
G03*
X89500Y187000I-500J0D01*
G01*
X158500Y170000D02*
G03*
X158500Y170000I-500J0D01*
G01*
X91480Y57180D02*
G03*
X91480Y57180I-500J0D01*
G01*
X28000Y241000D02*
X33000Y246000D01*
X28000Y241000D02*
X33000Y236000D01*
X28000Y185000D02*
X33000Y180000D01*
X28000Y185000D02*
X33000Y190000D01*
X28000Y213000D02*
X33000Y208000D01*
X28000Y213000D02*
X33000Y218000D01*
X204500Y174500D02*
Y180750D01*
X198250Y174500D02*
X204500D01*
Y211250D02*
Y217500D01*
X198250D02*
X204500D01*
X161500D02*
X167750D01*
X161500Y211250D02*
Y217500D01*
Y174500D02*
Y180750D01*
Y174500D02*
X167750D01*
D11*
X85500Y116000D02*
G03*
X85500Y116000I-500J0D01*
G01*
X146100Y125750D02*
G03*
X146100Y125750I-500J0D01*
G01*
X163000Y24985D02*
Y52985D01*
X149000Y24985D02*
X163000D01*
X149000D02*
Y52985D01*
X163000D01*
X212000Y200000D02*
X240000D01*
Y186000D02*
Y200000D01*
X212000Y186000D02*
X240000D01*
X212000D02*
Y200000D01*
X149000Y24985D02*
Y52985D01*
X135000Y24985D02*
X149000D01*
X135000D02*
Y52985D01*
X149000D01*
X140499Y185503D02*
Y213503D01*
X154499D01*
Y185503D02*
Y213503D01*
X140499Y185503D02*
X154499D01*
X45000Y105760D02*
X59000Y105760D01*
X45000Y77760D02*
Y105760D01*
Y77760D02*
X59000D01*
X59000Y105760D01*
X73000Y132000D02*
X113000D01*
Y100000D02*
Y132000D01*
X73000Y100000D02*
X113000D01*
X73000D02*
Y132000D01*
X240000Y228000D02*
Y242000D01*
X212000D02*
X240000D01*
X212000Y228000D02*
Y242000D01*
Y228000D02*
X240000D01*
X270000Y133000D02*
Y147000D01*
Y133000D02*
X298000D01*
Y147000D01*
X270000D02*
X298000D01*
X67000Y137000D02*
Y165000D01*
X81000D01*
Y137000D02*
Y165000D01*
X67000Y137000D02*
X81000D01*
X67000Y193000D02*
X81000D01*
X67000Y165000D02*
Y193000D01*
Y165000D02*
X81000D01*
Y193000D01*
X33000Y248000D02*
X61000D01*
Y234000D02*
Y248000D01*
X33000Y234000D02*
X61000D01*
X33000D02*
Y248000D01*
Y178000D02*
Y192000D01*
Y178000D02*
X61000D01*
Y192000D01*
X33000D02*
X61000D01*
X33000Y206000D02*
Y220000D01*
Y206000D02*
X61000D01*
Y220000D01*
X33000D02*
X61000D01*
X106000Y25000D02*
Y53000D01*
X120000D01*
Y25000D02*
Y53000D01*
X106000Y25000D02*
X120000D01*
X106000D02*
Y53000D01*
X92000Y25000D02*
X106000D01*
X92000D02*
Y53000D01*
X106000D01*
X78000Y25000D02*
Y53000D01*
X92000D01*
Y25000D02*
Y53000D01*
X78000Y25000D02*
X92000D01*
X135000Y25000D02*
Y53000D01*
X121000Y25000D02*
X135000D01*
X121000D02*
Y53000D01*
X135000D01*
X86000Y151000D02*
X114000D01*
X86000D02*
Y165000D01*
X114000D01*
Y151000D02*
Y165000D01*
X189669Y255963D02*
X203669D01*
X189669Y227963D02*
Y255963D01*
Y227963D02*
X203669D01*
Y255963D01*
X161669Y241963D02*
X189669D01*
X161669D02*
Y255963D01*
X189669D01*
Y241963D02*
Y255963D01*
X183500Y137000D02*
Y165000D01*
X197500D01*
Y137000D02*
Y165000D01*
X183500Y137000D02*
X197500D01*
X212000Y242000D02*
X240000D01*
X212000D02*
Y256000D01*
X240000D01*
Y242000D02*
Y256000D01*
X126300Y151000D02*
Y165000D01*
Y151000D02*
X154300D01*
Y165000D01*
X126300D02*
X154300D01*
X144500Y116750D02*
Y120500D01*
X148250D01*
X193750D02*
X197500D01*
Y116750D02*
Y120500D01*
Y67500D02*
Y71250D01*
X193750Y67500D02*
X197500D01*
X144500D02*
Y71250D01*
Y67500D02*
X148250D01*
X127000Y58000D02*
Y72000D01*
X99000D02*
X127000D01*
X99000Y58000D02*
Y72000D01*
Y58000D02*
X127000D01*
X99000Y86000D02*
X127000Y86000D01*
X127000Y72000D02*
X127000Y86000D01*
X99000Y72000D02*
X127000Y72000D01*
X99000Y72000D02*
X99000Y86000D01*
X99000Y86000D02*
X127000D01*
X99000D02*
Y100000D01*
X127000D01*
Y86000D02*
Y100000D01*
X71000Y86000D02*
Y100000D01*
Y86000D02*
X99000D01*
Y100000D01*
X71000D02*
X99000D01*
X126300Y165000D02*
Y179000D01*
Y165000D02*
X154300D01*
Y179000D01*
X126300D02*
X154300D01*
X126300Y137000D02*
X154300D01*
X126300D02*
Y151000D01*
X154300D01*
Y137000D02*
Y151000D01*
X270000Y133000D02*
Y147000D01*
X242000D02*
X270000D01*
X242000Y133000D02*
Y147000D01*
Y133000D02*
X270000D01*
X113000Y128000D02*
X127000D01*
X113000Y100000D02*
Y128000D01*
Y100000D02*
X127000D01*
Y128000D01*
X76000Y25000D02*
Y53000D01*
X62000Y25000D02*
X76000D01*
X62000D02*
Y53000D01*
X76000D01*
X31000Y105760D02*
X45000D01*
X31000Y77760D02*
Y105760D01*
Y77760D02*
X45000D01*
Y105760D01*
X163000Y25000D02*
Y53000D01*
X177000D01*
Y25000D02*
Y53000D01*
X163000Y25000D02*
X177000D01*
X86000Y151000D02*
X114000D01*
Y137000D02*
Y151000D01*
X86000Y137000D02*
X114000D01*
X86000D02*
Y151000D01*
X33000Y192000D02*
X61000D01*
X33000D02*
Y206000D01*
X61000D01*
Y192000D02*
Y206000D01*
X33000Y220000D02*
X61000D01*
X33000D02*
Y234000D01*
X61000D01*
Y220000D02*
Y234000D01*
Y220000D02*
X75000D01*
Y248000D01*
X61000D02*
X75000D01*
X61000Y220000D02*
Y248000D01*
X189669Y227963D02*
Y241963D01*
X161669D02*
X189669D01*
X161669Y227963D02*
Y241963D01*
Y227963D02*
X189669D01*
X240000Y200000D02*
Y214000D01*
X212000D02*
X240000D01*
X212000Y200000D02*
Y214000D01*
Y200000D02*
X240000D01*
Y214000D02*
Y228000D01*
X212000D02*
X240000D01*
X212000Y214000D02*
Y228000D01*
Y214000D02*
X240000D01*
X169500Y137000D02*
X183500D01*
Y165000D01*
X169500D02*
X183500D01*
X169500Y137000D02*
Y165000D01*
X155500Y137000D02*
X169500D01*
Y165000D01*
X155500D02*
X169500D01*
X155500Y137000D02*
Y165000D01*
X212000Y130000D02*
Y144000D01*
Y130000D02*
X240000D01*
Y144000D01*
X212000D02*
X240000D01*
M02*
